<?xml version="1.0" encoding="utf-8"?>
<!-- Generator: Adobe Illustrator 18.1.0, SVG Export Plug-In . SVG Version: 6.00 Build 0)  -->
<svg version="1.1" id="图层_1" xmlns="http://www.w3.org/2000/svg" xmlns:xlink="http://www.w3.org/1999/xlink" x="0px" y="0px"
	 viewBox="0 0 48.8 43.3" enable-background="new 0 0 48.8 43.3" xml:space="preserve">
<g>
	<path fill="none" stroke="#595757" stroke-width="2" stroke-linecap="round" stroke-linejoin="round" stroke-miterlimit="10" d="
		M23.9,38.8c0,0-4.7-2.7-10.6-2.7c-6.6,0-10.6,2.7-10.6,2.7V5.8c0,0,3.1-2.7,10.6-2.7c5.5,0,10.6,2.7,10.6,2.7V38.8z"/>
	<path fill="none" stroke="#595757" stroke-width="2" stroke-linecap="round" stroke-linejoin="round" stroke-miterlimit="10" d="
		M45,38.8c0,0-4.7-2.7-10.6-2.7c-6.6,0-10.6,2.7-10.6,2.7V5.8c0,0,3.1-2.7,10.6-2.7C39.9,3.2,45,5.8,45,5.8V38.8z"/>
	<path fill="none" stroke="#595757" stroke-width="2" stroke-linecap="round" stroke-linejoin="round" stroke-miterlimit="10" d="
		M5.5,10.7c0,0,7.1-3.6,14.8,0"/>
	<path fill="none" stroke="#595757" stroke-width="2" stroke-linecap="round" stroke-linejoin="round" stroke-miterlimit="10" d="
		M27.1,10.7c0,0,7.1-3.6,14.8,0"/>
	<path fill="none" stroke="#595757" stroke-width="2" stroke-linecap="round" stroke-linejoin="round" stroke-miterlimit="10" d="
		M5.5,16.7c0,0,7.1-3.6,14.8,0"/>
</g>
</svg>
