<svg viewBox="0 0 852.68 649.16" xmlns="http://www.w3.org/2000/svg" xmlns:xlink="http://www.w3.org/1999/xlink"><clipPath id="a" transform="translate(-114.96 -28.6)"><path d="m0 0h900v600h-900z"/></clipPath><g clip-path="url(#a)" fill="#00273f"><path d="m363.71 65.46a1.34 1.34 0 1 0 1.34-1.34 1.34 1.34 0 0 0 -1.34 1.34z" transform="translate(-114.96 -28.6)"/><path d="m332.8 70.79a1 1 0 1 0 1-1 1 1 0 0 0 -1 1z" transform="translate(-114.96 -28.6)"/><path d="m359.58 73.28a.91.91 0 1 0 .91-.91.91.91 0 0 0 -.91.91z" transform="translate(-114.96 -28.6)"/><circle cx="222.99" cy="60.26" r="1.26"/><path d="m339.07 62.37a1 1 0 1 0 1-1 1 1 0 0 0 -1 1z" transform="translate(-114.96 -28.6)"/><path d="m349.53 71.54a.81.81 0 1 0 .81-.8.81.81 0 0 0 -.81.8z" transform="translate(-114.96 -28.6)"/><circle cx="237.44" cy="29.84" r="1.44"/><circle cx="219.19" cy="54.64" r="1.42"/><path d="m329.65 80.41a1.07 1.07 0 1 0 1.06-1.06 1.06 1.06 0 0 0 -1.06 1.06z" transform="translate(-114.96 -28.6)"/><path d="m317.61 80.88a1.39 1.39 0 1 0 1.39-1.39 1.39 1.39 0 0 0 -1.39 1.39z" transform="translate(-114.96 -28.6)"/><path d="m335.84 61.53a.93.93 0 1 0 .93-.93.93.93 0 0 0 -.93.93z" transform="translate(-114.96 -28.6)"/><path d="m359.49 132.18a.85.85 0 1 0 .85-.85.85.85 0 0 0 -.85.85z" transform="translate(-114.96 -28.6)"/><path d="m627.53 362.79a1 1 0 1 0 1-1 1 1 0 0 0 -1 1z" transform="translate(-114.96 -28.6)"/><path d="m381.17 131.93a.7.7 0 1 0 .7-.7.7.7 0 0 0 -.7.7z" transform="translate(-114.96 -28.6)"/><path d="m299.44 125.07a1.33 1.33 0 1 0 1.33-1.33 1.32 1.32 0 0 0 -1.33 1.33z" transform="translate(-114.96 -28.6)"/><path d="m566.22 151.07a.79.79 0 0 0 .8.79.79.79 0 0 0 .79-.79.79.79 0 0 0 -.79-.8.8.8 0 0 0 -.8.8z" transform="translate(-114.96 -28.6)"/><path d="m576.33 153a.79.79 0 1 0 .78-.78.78.78 0 0 0 -.78.78z" transform="translate(-114.96 -28.6)"/><path d="m553.51 158.58a.64.64 0 0 0 .64.64.64.64 0 0 0 .64-.64.64.64 0 1 0 -1.28 0z" transform="translate(-114.96 -28.6)"/><path d="m593.85 165.36a.89.89 0 1 0 .89-.89.89.89 0 0 0 -.89.89z" transform="translate(-114.96 -28.6)"/><path d="m634.87 102.92a.63.63 0 1 0 .63-.62.63.63 0 0 0 -.63.62z" transform="translate(-114.96 -28.6)"/><circle cx="500.47" cy="127.28" r="1.16"/><path d="m631.34 116.59a1.05 1.05 0 1 0 1-1 1 1 0 0 0 -1 1z" transform="translate(-114.96 -28.6)"/><path d="m583.86 178.47a1.09 1.09 0 1 0 1.09-1.08 1.09 1.09 0 0 0 -1.09 1.08z" transform="translate(-114.96 -28.6)"/><circle cx="435.31" cy="154.11" r="1.41"/><circle cx="493.31" cy="143.39" r="1.36"/><circle cx="404.39" cy="130.7" r="1.45"/><path d="m961.42 625.17a1.38 1.38 0 1 0 1.38-1.37 1.37 1.37 0 0 0 -1.38 1.37z" transform="translate(-114.96 -28.6)"/><path d="m631.27 369.42a.93.93 0 1 0 .93-.94.93.93 0 0 0 -.93.94z" transform="translate(-114.96 -28.6)"/><path d="m478.64 151.43a1.33 1.33 0 1 0 1.36-1.33 1.32 1.32 0 0 0 -1.36 1.33z" transform="translate(-114.96 -28.6)"/><circle cx="221.06" cy="155.76" r="1.34"/><path d="m440 176.22a.75.75 0 1 0 .74-.74.74.74 0 0 0 -.74.74z" transform="translate(-114.96 -28.6)"/><circle cx="298.61" cy="137.05" r="1.04"/><path d="m449.9 166a.85.85 0 1 0 .85-.85.85.85 0 0 0 -.85.85z" transform="translate(-114.96 -28.6)"/><circle cx="360.2" cy="154.33" r=".78"/><path d="m469.38 190.7a1.21 1.21 0 1 0 1.2-1.2 1.21 1.21 0 0 0 -1.2 1.2z" transform="translate(-114.96 -28.6)"/><path d="m556.55 165.16a1 1 0 1 0 2.09 0 1 1 0 0 0 -2.09 0z" transform="translate(-114.96 -28.6)"/><path d="m398.16 181.05a.84.84 0 0 0 .84.83.83.83 0 0 0 .83-.83.84.84 0 0 0 -.83-.84.85.85 0 0 0 -.84.84z" transform="translate(-114.96 -28.6)"/><path d="m433 497a.69.69 0 0 0 .69.69.69.69 0 0 0 0-1.38.69.69 0 0 0 -.69.69z" transform="translate(-114.96 -28.6)"/><path d="m786.12 635.45a.88.88 0 1 0 .88-.89.87.87 0 0 0 -.88.89z" transform="translate(-114.96 -28.6)"/><path d="m345.88 199.39a.92.92 0 1 0 .92-.91.92.92 0 0 0 -.92.91z" transform="translate(-114.96 -28.6)"/><path d="m297 198.56a1.18 1.18 0 1 0 1.18-1.18 1.18 1.18 0 0 0 -1.18 1.18z" transform="translate(-114.96 -28.6)"/><circle cx="218.07" cy="493.16" r=".67"/><path d="m221.08 250.12a.76.76 0 1 0 .76-.76.76.76 0 0 0 -.76.76z" transform="translate(-114.96 -28.6)"/><path d="m257.51 164.22a1.44 1.44 0 1 0 1.44-1.43 1.44 1.44 0 0 0 -1.44 1.43z" transform="translate(-114.96 -28.6)"/><circle cx="480.77" cy="632.4" r="1.14"/><path d="m494.53 448.18a1.25 1.25 0 1 0 1.24-1.25 1.25 1.25 0 0 0 -1.24 1.25z" transform="translate(-114.96 -28.6)"/><path d="m278 158.88a1 1 0 1 0 1-1 1 1 0 0 0 -1 1z" transform="translate(-114.96 -28.6)"/><circle cx="108.29" cy="168" r="1.45"/><path d="m297.1 142.05a.84.84 0 0 0 .84.83.83.83 0 1 0 0-1.66.84.84 0 0 0 -.84.83z" transform="translate(-114.96 -28.6)"/><circle cx="107.64" cy="207.08" r=".76"/><circle cx="833.37" cy="451.16" r="1.33"/><path d="m226 213.06a1.3 1.3 0 1 0 1.3-1.3 1.31 1.31 0 0 0 -1.3 1.3z" transform="translate(-114.96 -28.6)"/><path d="m303.41 77.67a1.13 1.13 0 1 0 2.26 0 1.13 1.13 0 0 0 -2.26 0z" transform="translate(-114.96 -28.6)"/><path d="m229.81 159.83a.66.66 0 1 0 .66-.65.66.66 0 0 0 -.66.65z" transform="translate(-114.96 -28.6)"/><circle cx="69.34" cy="153.25" r="1.19"/><path d="m165.84 174.31a.81.81 0 1 0 .81-.81.8.8 0 0 0 -.81.81z" transform="translate(-114.96 -28.6)"/><circle cx="221.81" cy="180.93" r=".98"/><path d="m323.12 199.84a1 1 0 1 0 1-1 1 1 0 0 0 -1 1z" transform="translate(-114.96 -28.6)"/><path d="m293.2 147.74a.75.75 0 0 0 1.5 0 .75.75 0 0 0 -1.5 0z" transform="translate(-114.96 -28.6)"/><path d="m341.54 160.36a.74.74 0 0 0 1.47 0 .74.74 0 0 0 -1.47 0z" transform="translate(-114.96 -28.6)"/><path d="m596.44 465.63a1.09 1.09 0 1 0 1.08-1.09 1.08 1.08 0 0 0 -1.08 1.09z" transform="translate(-114.96 -28.6)"/><path d="m321.53 168.11a1.34 1.34 0 1 0 1.34-1.34 1.34 1.34 0 0 0 -1.34 1.34z" transform="translate(-114.96 -28.6)"/><path d="m429.14 162.5a.79.79 0 1 0 .79-.79.79.79 0 0 0 -.79.79z" transform="translate(-114.96 -28.6)"/><path d="m556.18 172.22a1.34 1.34 0 1 0 1.34-1.34 1.33 1.33 0 0 0 -1.34 1.34z" transform="translate(-114.96 -28.6)"/><circle cx="341.2" cy="152.6" r=".67"/><path d="m502.34 166.89a1.39 1.39 0 1 0 1.39-1.39 1.39 1.39 0 0 0 -1.39 1.39z" transform="translate(-114.96 -28.6)"/><path d="m264 160.46a1 1 0 1 0 1-1 1 1 0 0 0 -1 1z" transform="translate(-114.96 -28.6)"/><path d="m292.89 255.46a1.06 1.06 0 1 0 1.11-1.06 1.06 1.06 0 0 0 -1.11 1.06z" transform="translate(-114.96 -28.6)"/><path d="m282.71 450.13a1.13 1.13 0 1 0 1.13-1.13 1.13 1.13 0 0 0 -1.13 1.13z" transform="translate(-114.96 -28.6)"/><path d="m325.66 560.59a1 1 0 1 0 1-1 1 1 0 0 0 -1 1z" transform="translate(-114.96 -28.6)"/><path d="m306.64 283.3a.9.9 0 1 0 .89-.9.89.89 0 0 0 -.89.9z" transform="translate(-114.96 -28.6)"/><circle cx="136.6" cy="612.4" r=".87"/><path d="m292.5 266.2a.8.8 0 1 0 .8-.8.8.8 0 0 0 -.8.8z" transform="translate(-114.96 -28.6)"/><path d="m702.28 624.21a1.39 1.39 0 1 0 1.39-1.39 1.39 1.39 0 0 0 -1.39 1.39z" transform="translate(-114.96 -28.6)"/><circle cx="489.92" cy="504.06" r=".99"/><circle cx="159.58" cy="260.75" r=".86"/><path d="m305.92 329.21a.89.89 0 1 0 1.77 0 .89.89 0 0 0 -1.77 0z" transform="translate(-114.96 -28.6)"/><path d="m304.29 404.61a1.28 1.28 0 1 0 1.28-1.28 1.27 1.27 0 0 0 -1.28 1.28z" transform="translate(-114.96 -28.6)"/><path d="m184.73 428.91a.77.77 0 0 0 .77.76.76.76 0 1 0 0-1.52.77.77 0 0 0 -.77.76z" transform="translate(-114.96 -28.6)"/><path d="m387.9 427.73a.8.8 0 1 0 .8-.8.8.8 0 0 0 -.8.8z" transform="translate(-114.96 -28.6)"/><circle cx="223.62" cy="386.15" r=".65"/><path d="m302.6 476.91a1.23 1.23 0 1 0 1.23-1.22 1.23 1.23 0 0 0 -1.23 1.22z" transform="translate(-114.96 -28.6)"/><path d="m275.83 451.23a.65.65 0 1 0 .65-.65.65.65 0 0 0 -.65.65z" transform="translate(-114.96 -28.6)"/><circle cx="166.61" cy="434.52" r="1.23"/><circle cx="193.04" cy="426.29" r="1.21"/><path d="m430.25 533.71a1.38 1.38 0 1 0 1.38-1.38 1.38 1.38 0 0 0 -1.38 1.38z" transform="translate(-114.96 -28.6)"/><path d="m428.43 394.05a1.45 1.45 0 1 0 1.45-1.45 1.44 1.44 0 0 0 -1.45 1.45z" transform="translate(-114.96 -28.6)"/><path d="m424.73 352.41a1.34 1.34 0 1 0 1.34-1.34 1.34 1.34 0 0 0 -1.34 1.34z" transform="translate(-114.96 -28.6)"/><circle cx="331.45" cy="349.6" r="1.07"/><path d="m446.64 349.8a1.11 1.11 0 1 0 1.11-1.11 1.11 1.11 0 0 0 -1.11 1.11z" transform="translate(-114.96 -28.6)"/><path d="m540.86 390.11a.68.68 0 1 0 1.36 0 .68.68 0 1 0 -1.36 0z" transform="translate(-114.96 -28.6)"/><circle cx="372.07" cy="356.03" r="1.39"/><circle cx="387.49" cy="361.5" r="1.11"/><circle cx="365.65" cy="342.26" r="1.26"/><circle cx="316.67" cy="315.24" r="1.4"/><path d="m426.12 404a.82.82 0 1 0 .82-.82.82.82 0 0 0 -.82.82z" transform="translate(-114.96 -28.6)"/><path d="m410 468.59a1.07 1.07 0 1 0 1.06-1.06 1.06 1.06 0 0 0 -1.06 1.06z" transform="translate(-114.96 -28.6)"/><path d="m415 451.87a1.29 1.29 0 1 0 1.29-1.29 1.29 1.29 0 0 0 -1.29 1.29z" transform="translate(-114.96 -28.6)"/><path d="m198.59 450.58a1.3 1.3 0 1 0 1.3-1.3 1.31 1.31 0 0 0 -1.3 1.3z" transform="translate(-114.96 -28.6)"/><path d="m267.9 477a.7.7 0 1 0 .7-.7.69.69 0 0 0 -.7.7z" transform="translate(-114.96 -28.6)"/><circle cx="88.02" cy="398.86" r="1.44"/><path d="m203.53 332.16a1.45 1.45 0 1 0 1.44-1.44 1.44 1.44 0 0 0 -1.44 1.44z" transform="translate(-114.96 -28.6)"/><path d="m206.82 411.21a1.18 1.18 0 1 0 1.18-1.21 1.18 1.18 0 0 0 -1.18 1.21z" transform="translate(-114.96 -28.6)"/><circle cx="134.92" cy="451.26" r="1.17"/><circle cx="96.37" cy="361.08" r="1.33"/><circle cx="78.3" cy="350.68" r=".85"/><circle cx="103.17" cy="449.77" r="1.38"/><path d="m255.65 464.13a1.45 1.45 0 0 0 2.89 0 1.45 1.45 0 1 0 -2.89 0z" transform="translate(-114.96 -28.6)"/><path d="m255.22 426a1.3 1.3 0 1 0 1.3-1.3 1.3 1.3 0 0 0 -1.3 1.3z" transform="translate(-114.96 -28.6)"/><path d="m686 453.08a1 1 0 1 0 1-1 1 1 0 0 0 -1 1z" transform="translate(-114.96 -28.6)"/><path d="m248.05 335.67a1.19 1.19 0 1 0 1.19-1.19 1.18 1.18 0 0 0 -1.19 1.19z" transform="translate(-114.96 -28.6)"/><path d="m308.91 422.81a1.24 1.24 0 1 0 1.23-1.24 1.23 1.23 0 0 0 -1.23 1.24z" transform="translate(-114.96 -28.6)"/><path d="m168.67 624.21a1.21 1.21 0 1 0 1.21-1.21 1.21 1.21 0 0 0 -1.21 1.21z" transform="translate(-114.96 -28.6)"/><path d="m510.13 495.67a1.37 1.37 0 1 0 1.37-1.38 1.37 1.37 0 0 0 -1.37 1.38z" transform="translate(-114.96 -28.6)"/><path d="m236.29 342.37a.94.94 0 1 0 .94-.94.94.94 0 0 0 -.94.94z" transform="translate(-114.96 -28.6)"/><path d="m202.84 314.19a1.28 1.28 0 1 0 1.28-1.28 1.28 1.28 0 0 0 -1.28 1.28z" transform="translate(-114.96 -28.6)"/><path d="m204.12 300.4a.85.85 0 1 0 .85-.85.85.85 0 0 0 -.85.85z" transform="translate(-114.96 -28.6)"/><circle cx="92.07" cy="294.48" r="1.08"/><path d="m250.85 551.5a.84.84 0 0 0 .84.83.83.83 0 0 0 .83-.83.84.84 0 0 0 -.83-.84.85.85 0 0 0 -.84.84z" transform="translate(-114.96 -28.6)"/><path d="m417 390.44a.87.87 0 1 0 .87-.87.87.87 0 0 0 -.87.87z" transform="translate(-114.96 -28.6)"/><path d="m292.31 393.87a1 1 0 1 0 1-1 1 1 0 0 0 -1 1z" transform="translate(-114.96 -28.6)"/><circle cx="175.23" cy="273.58" r="1.24"/><path d="m543.8 162.75a1 1 0 1 0 1-1 1 1 0 0 0 -1 1z" transform="translate(-114.96 -28.6)"/><circle cx="284.7" cy="111.56" r="1.4"/><circle cx="236.81" cy="35.72" r=".63"/><path d="m359.13 62a1.42 1.42 0 1 0 1.41-1.41 1.41 1.41 0 0 0 -1.41 1.41z" transform="translate(-114.96 -28.6)"/><path d="m354.25 69.33a1.07 1.07 0 1 0 1.07-1.07 1.06 1.06 0 0 0 -1.07 1.07z" transform="translate(-114.96 -28.6)"/><path d="m312.11 90.94a.91.91 0 1 0 .89-.94.91.91 0 0 0 -.89.94z" transform="translate(-114.96 -28.6)"/><circle cx="249.3" cy="76.55" r="1.07"/><path d="m304.4 89.44a1.21 1.21 0 1 0 1.2-1.21 1.2 1.2 0 0 0 -1.2 1.21z" transform="translate(-114.96 -28.6)"/><circle cx="226.63" cy="90.39" r="1.28"/><path d="m962 581a.82.82 0 0 0 .81.82.82.82 0 1 0 0-1.64.82.82 0 0 0 -.81.82z" transform="translate(-114.96 -28.6)"/><circle cx="191.32" cy="110.4" r="1.39"/><circle cx="288.54" cy="127.75" r="1.2"/><path d="m346.74 136.28a1.41 1.41 0 1 0 1.41-1.4 1.41 1.41 0 0 0 -1.41 1.4z" transform="translate(-114.96 -28.6)"/><path d="m383 140.17a.89.89 0 1 0 .89-.9.89.89 0 0 0 -.89.9z" transform="translate(-114.96 -28.6)"/><circle cx="216.28" cy="99.79" r=".77"/><path d="m272.08 189.12a1.23 1.23 0 1 0 1.22-1.22 1.22 1.22 0 0 0 -1.22 1.22z" transform="translate(-114.96 -28.6)"/><path d="m365.85 161.82a1 1 0 1 0 1-1 1 1 0 0 0 -1 1z" transform="translate(-114.96 -28.6)"/><path d="m432.76 157a.7.7 0 1 0 .69-.69.69.69 0 0 0 -.69.69z" transform="translate(-114.96 -28.6)"/><path d="m349.2 145.35a1.09 1.09 0 1 0 1.09-1.09 1.09 1.09 0 0 0 -1.09 1.09z" transform="translate(-114.96 -28.6)"/><path d="m234.25 387.31a1.26 1.26 0 1 0 1.26-1.26 1.25 1.25 0 0 0 -1.26 1.26z" transform="translate(-114.96 -28.6)"/><path d="m195.88 355.1a1.3 1.3 0 1 0 1.3-1.3 1.3 1.3 0 0 0 -1.3 1.3z" transform="translate(-114.96 -28.6)"/><path d="m222.62 227.63a1.34 1.34 0 1 0 1.34-1.34 1.34 1.34 0 0 0 -1.34 1.34z" transform="translate(-114.96 -28.6)"/><circle cx="126.43" cy="194.3" r=".73"/><circle cx="146.57" cy="103.7" r="1.07"/><path d="m286.66 203.62a.82.82 0 0 0 .81.82.82.82 0 0 0 .82-.82.82.82 0 0 0 -.82-.81.81.81 0 0 0 -.81.81z" transform="translate(-114.96 -28.6)"/><path d="m265.27 314a1.15 1.15 0 0 0 2.29 0 1.15 1.15 0 1 0 -2.29 0z" transform="translate(-114.96 -28.6)"/><path d="m404.75 654.16a1.16 1.16 0 1 0 1.16-1.16 1.16 1.16 0 0 0 -1.16 1.16z" transform="translate(-114.96 -28.6)"/><path d="m461.92 522.76a1.14 1.14 0 1 0 1.14-1.13 1.13 1.13 0 0 0 -1.14 1.13z" transform="translate(-114.96 -28.6)"/><path d="m259.55 278.73a.73.73 0 0 0 .73.72.73.73 0 0 0 0-1.45.73.73 0 0 0 -.73.73z" transform="translate(-114.96 -28.6)"/><circle cx="500.06" cy="508.25" r=".74"/><circle cx="152.05" cy="242.13" r="1"/><path d="m614.51 530.64a.81.81 0 1 0 .81-.8.81.81 0 0 0 -.81.8z" transform="translate(-114.96 -28.6)"/><circle cx="80.91" cy="311.33" r="1.23"/><circle cx="193.34" cy="243.06" r=".64"/><path d="m266.16 223.71a1 1 0 1 0 2.07 0 1 1 0 0 0 -2.07 0z" transform="translate(-114.96 -28.6)"/><circle cx="8.79" cy="383.19" r="1.19"/><path d="m298.05 356.5a.75.75 0 0 0 .75.76.76.76 0 1 0 0-1.51.75.75 0 0 0 -.75.75z" transform="translate(-114.96 -28.6)"/><path d="m448 622.82a.95.95 0 1 0 .95-1 .95.95 0 0 0 -.95 1z" transform="translate(-114.96 -28.6)"/><circle cx="248.44" cy="593.59" r="1.22"/><path d="m308.05 394.45a1.16 1.16 0 1 0 1.15-1.16 1.15 1.15 0 0 0 -1.15 1.16z" transform="translate(-114.96 -28.6)"/><path d="m321 549.44a.72.72 0 1 0 .72-.73.72.72 0 0 0 -.72.73z" transform="translate(-114.96 -28.6)"/><circle cx="452.29" cy="430.23" r="1.01"/><path d="m848.26 360.46a1.41 1.41 0 1 0 1.41-1.4 1.41 1.41 0 0 0 -1.41 1.4z" transform="translate(-114.96 -28.6)"/><path d="m355.75 439.86a1.3 1.3 0 1 0 1.3-1.31 1.3 1.3 0 0 0 -1.3 1.31z" transform="translate(-114.96 -28.6)"/><circle cx="144.62" cy="328.45" r="1.45"/><circle cx="95.71" cy="237.37" r=".76"/><circle cx="399.78" cy="545.73" r="1.02"/><path d="m235.1 198a1.23 1.23 0 1 0 1.22-1.23 1.22 1.22 0 0 0 -1.22 1.23z" transform="translate(-114.96 -28.6)"/><path d="m792.82 533.05a1.34 1.34 0 1 0 1.34-1.34 1.35 1.35 0 0 0 -1.34 1.34z" transform="translate(-114.96 -28.6)"/><path d="m247.12 183.33a1.28 1.28 0 1 0 1.28-1.28 1.28 1.28 0 0 0 -1.28 1.28z" transform="translate(-114.96 -28.6)"/><path d="m244.7 150.19a1.16 1.16 0 1 0 1.16-1.16 1.16 1.16 0 0 0 -1.16 1.16z" transform="translate(-114.96 -28.6)"/><path d="m251.86 143.18a1.24 1.24 0 1 0 2.48 0 1.24 1.24 0 1 0 -2.48 0z" transform="translate(-114.96 -28.6)"/><path d="m280.32 127.7a1.27 1.27 0 1 0 1.27-1.28 1.27 1.27 0 0 0 -1.27 1.28z" transform="translate(-114.96 -28.6)"/><circle cx="205.22" cy="67.7" r="1.06"/><circle cx="196.27" cy="85.4" r="1.2"/><circle cx="168.78" cy="94.52" r="1.21"/><path d="m322 121.45a1 1 0 0 0 2.07 0 1 1 0 1 0 -2.07 0z" transform="translate(-114.96 -28.6)"/><circle cx="175.23" cy="99.44" r="1.45"/><path d="m326.18 110.12a1.19 1.19 0 1 0 1.18-1.19 1.18 1.18 0 0 0 -1.18 1.19z" transform="translate(-114.96 -28.6)"/><circle cx="189.49" cy="91.37" r=".98"/><path d="m315.47 115.54a.68.68 0 1 0 .68-.68.67.67 0 0 0 -.68.68z" transform="translate(-114.96 -28.6)"/><path d="m307.13 100.13a.68.68 0 1 0 .68-.69.68.68 0 0 0 -.68.69z" transform="translate(-114.96 -28.6)"/><circle cx="192.81" cy="92.85" r="1.34"/><path d="m295.89 117.93a1.14 1.14 0 1 0 1.14-1.14 1.15 1.15 0 0 0 -1.14 1.14z" transform="translate(-114.96 -28.6)"/><path d="m314.76 66.8a1.39 1.39 0 1 0 1.39-1.39 1.39 1.39 0 0 0 -1.39 1.39z" transform="translate(-114.96 -28.6)"/><path d="m273.22 128.39a1 1 0 1 0 1-1 1 1 0 0 0 -1 1z" transform="translate(-114.96 -28.6)"/><circle cx="76.9" cy="157.99" r="1.44"/><circle cx="103.33" cy="243.88" r=".84"/><circle cx="114.74" cy="237.39" r="1.4"/><path d="m239.6 164.61a1 1 0 1 0 1-1 1 1 0 0 0 -1 1z" transform="translate(-114.96 -28.6)"/><path d="m395 168.88a.76.76 0 1 0 .76-.76.76.76 0 0 0 -.76.76z" transform="translate(-114.96 -28.6)"/><path d="m279.43 244.63a.75.75 0 0 0 1.5 0 .75.75 0 1 0 -1.5 0z" transform="translate(-114.96 -28.6)"/><path d="m358.31 165.05a1.34 1.34 0 1 0 1.34-1.35 1.34 1.34 0 0 0 -1.34 1.35z" transform="translate(-114.96 -28.6)"/><path d="m318.91 207.18a.64.64 0 1 0 .63-.63.63.63 0 0 0 -.63.63z" transform="translate(-114.96 -28.6)"/><path d="m378.73 433.62a.89.89 0 1 0 .89-.89.89.89 0 0 0 -.89.89z" transform="translate(-114.96 -28.6)"/><path d="m388.94 407.06a1.07 1.07 0 1 0 1.06-1.06 1.07 1.07 0 0 0 -1.06 1.06z" transform="translate(-114.96 -28.6)"/><path d="m321.64 450.58a1.4 1.4 0 1 0 1.4-1.4 1.4 1.4 0 0 0 -1.4 1.4z" transform="translate(-114.96 -28.6)"/><path d="m431.63 385.34a1 1 0 1 0 1-1 1 1 0 0 0 -1 1z" transform="translate(-114.96 -28.6)"/><path d="m285.18 405.69a.75.75 0 1 0 .75-.75.75.75 0 0 0 -.75.75z" transform="translate(-114.96 -28.6)"/><path d="m155.36 434.51a.65.65 0 1 0 .65-.65.65.65 0 0 0 -.65.65z" transform="translate(-114.96 -28.6)"/><circle cx="200.92" cy="443.12" r="1.36"/><path d="m260.12 402.66a1.42 1.42 0 1 0 1.42-1.42 1.42 1.42 0 0 0 -1.42 1.42z" transform="translate(-114.96 -28.6)"/><path d="m157.92 157.1a1.08 1.08 0 1 0 1.08-1.1 1.07 1.07 0 0 0 -1.08 1.1z" transform="translate(-114.96 -28.6)"/><path d="m164.55 177.32a.64.64 0 1 0 1.28 0 .64.64 0 1 0 -1.28 0z" transform="translate(-114.96 -28.6)"/><path d="m148.52 157.35a.77.77 0 1 0 .77-.76.76.76 0 0 0 -.77.76z" transform="translate(-114.96 -28.6)"/><path d="m156 148.61a1.16 1.16 0 1 0 1.16-1.16 1.16 1.16 0 0 0 -1.16 1.16z" transform="translate(-114.96 -28.6)"/><path d="m160 162a1.25 1.25 0 1 0 1.25-1.25 1.25 1.25 0 0 0 -1.25 1.25z" transform="translate(-114.96 -28.6)"/><path d="m164.52 161.57a1.39 1.39 0 1 0 1.39-1.39 1.39 1.39 0 0 0 -1.39 1.39z" transform="translate(-114.96 -28.6)"/><path d="m163.72 163.42a.74.74 0 1 0 .74-.73.74.74 0 0 0 -.74.73z" transform="translate(-114.96 -28.6)"/><circle cx="54.33" cy="139.84" r="1.39"/><circle cx="41.93" cy="137.14" r="1.26"/><circle cx="48.43" cy="141.51" r="1.13"/><path d="m407.88 303.71a.94.94 0 1 0 .94-.94.94.94 0 0 0 -.94.94z" transform="translate(-114.96 -28.6)"/><circle cx="366.12" cy="348.65" r=".98"/><circle cx="379.56" cy="349.64" r="1.42"/><path d="m926.53 267a1.14 1.14 0 1 0 1.14-1.15 1.14 1.14 0 0 0 -1.14 1.15z" transform="translate(-114.96 -28.6)"/><path d="m919 226.36a1.32 1.32 0 1 0 1.32-1.32 1.32 1.32 0 0 0 -1.32 1.32z" transform="translate(-114.96 -28.6)"/><path d="m556.19 357.53a.87.87 0 0 0 1.73 0 .87.87 0 1 0 -1.73 0z" transform="translate(-114.96 -28.6)"/><path d="m607.4 415.85a1.31 1.31 0 1 0 1.3-1.3 1.31 1.31 0 0 0 -1.3 1.3z" transform="translate(-114.96 -28.6)"/><path d="m547.42 330.57a1.34 1.34 0 1 0 1.33-1.34 1.33 1.33 0 0 0 -1.33 1.34z" transform="translate(-114.96 -28.6)"/><path d="m210.58 308.67a1.3 1.3 0 1 0 1.29-1.3 1.29 1.29 0 0 0 -1.29 1.3z" transform="translate(-114.96 -28.6)"/><path d="m144 164.61a1.23 1.23 0 1 0 1.23-1.23 1.23 1.23 0 0 0 -1.23 1.23z" transform="translate(-114.96 -28.6)"/><path d="m447 419.49a1.35 1.35 0 1 0 1.35-1.35 1.34 1.34 0 0 0 -1.35 1.35z" transform="translate(-114.96 -28.6)"/><path d="m155.9 158.56a1 1 0 1 0 1-1 1 1 0 0 0 -1 1z" transform="translate(-114.96 -28.6)"/><path d="m190.47 198.56a.79.79 0 1 0 .79-.79.79.79 0 0 0 -.79.79z" transform="translate(-114.96 -28.6)"/><path d="m167.9 155.17a.83.83 0 1 0 .83-.83.83.83 0 0 0 -.83.83z" transform="translate(-114.96 -28.6)"/><path d="m421.5 573.31a1.29 1.29 0 1 0 1.29-1.29 1.29 1.29 0 0 0 -1.29 1.29z" transform="translate(-114.96 -28.6)"/><path d="m378.42 447.2a.63.63 0 1 0 .62-.63.63.63 0 0 0 -.62.63z" transform="translate(-114.96 -28.6)"/><path d="m475.83 427a.74.74 0 1 0 .74-.74.74.74 0 0 0 -.74.74z" transform="translate(-114.96 -28.6)"/><path d="m545.49 350.05a1 1 0 1 0 1-1 1 1 0 0 0 -1 1z" transform="translate(-114.96 -28.6)"/><path d="m927.67 200.79a1.17 1.17 0 1 0 1.16-1.16 1.16 1.16 0 0 0 -1.16 1.16z" transform="translate(-114.96 -28.6)"/><path d="m364.88 393.48a1.13 1.13 0 1 0 1.13-1.13 1.13 1.13 0 0 0 -1.13 1.13z" transform="translate(-114.96 -28.6)"/><circle cx="288.55" cy="429.06" r="1.16"/><path d="m467.49 378.79a.7.7 0 1 0 .7-.7.69.69 0 0 0 -.7.7z" transform="translate(-114.96 -28.6)"/><path d="m560.54 290.21a1 1 0 1 0 1-1 1 1 0 0 0 -1 1z" transform="translate(-114.96 -28.6)"/><path d="m350.15 397.42a1.37 1.37 0 1 0 1.37-1.37 1.37 1.37 0 0 0 -1.37 1.37z" transform="translate(-114.96 -28.6)"/><circle cx="396.53" cy="293.95" r="1.18"/><path d="m479.44 408a1.17 1.17 0 1 0 1.17-1.18 1.17 1.17 0 0 0 -1.17 1.18z" transform="translate(-114.96 -28.6)"/><path d="m579.38 382.2a.95.95 0 1 0 1.89 0 .95.95 0 0 0 -1.89 0z" transform="translate(-114.96 -28.6)"/><circle cx="436.1" cy="382.85" r=".95"/><path d="m559.9 275a.64.64 0 0 0 .64.63.63.63 0 1 0 0-1.26.64.64 0 0 0 -.64.63z" transform="translate(-114.96 -28.6)"/><path d="m448.2 300.92a1.14 1.14 0 1 0 1.13-1.13 1.14 1.14 0 0 0 -1.13 1.13z" transform="translate(-114.96 -28.6)"/><circle cx="233.29" cy="380.36" r=".96"/><circle cx="199.86" cy="429.7" r="1.04"/><circle cx="104.73" cy="459.46" r="1.41"/><circle cx="54.91" cy="379.27" r=".88"/><circle cx="80.59" cy="295.05" r="1.14"/><path d="m211 199a.87.87 0 1 0 .86-.86.86.86 0 0 0 -.86.86z" transform="translate(-114.96 -28.6)"/><circle cx="79.15" cy="152.09" r=".89"/><path d="m183.36 418.14a.61.61 0 0 0 .61.62.62.62 0 1 0 0-1.24.61.61 0 0 0 -.61.62z" transform="translate(-114.96 -28.6)"/><path d="m155.47 420.08a.54.54 0 1 0 .54-.53.54.54 0 0 0 -.54.53z" transform="translate(-114.96 -28.6)"/><circle cx="97.91" cy="198.39" r=".64"/><path d="m124.94 402.66a.61.61 0 1 0 .61-.61.61.61 0 0 0 -.61.61z" transform="translate(-114.96 -28.6)"/><path d="m199.88 399.17a1 1 0 1 0 1-1 1 1 0 0 0 -1 1z" transform="translate(-114.96 -28.6)"/><path d="m197.18 173a.95.95 0 1 0 .95-1 .95.95 0 0 0 -.95 1z" transform="translate(-114.96 -28.6)"/><path d="m175.73 424.38a1 1 0 1 0 1-1 1 1 0 0 0 -1 1z" transform="translate(-114.96 -28.6)"/><circle cx="108.04" cy="322.79" r="1.2"/><circle cx="90.01" cy="147.87" r=".85"/><circle cx="71.71" cy="376.29" r="1.18"/><path d="m223 331.32a1.22 1.22 0 1 0 1.22-1.22 1.22 1.22 0 0 0 -1.22 1.22z" transform="translate(-114.96 -28.6)"/><path d="m124.5 242.1a.55.55 0 0 0 .55.55.55.55 0 0 0 .55-.55.55.55 0 0 0 -.55-.55.54.54 0 0 0 -.55.55z" transform="translate(-114.96 -28.6)"/><path d="m448.34 473.7a1 1 0 1 0 1.05-1.05 1 1 0 0 0 -1.05 1.05z" transform="translate(-114.96 -28.6)"/><path d="m514.74 415.13a.75.75 0 1 0 1.5 0 .75.75 0 0 0 -1.5 0z" transform="translate(-114.96 -28.6)"/><path d="m577.08 353.05a.86.86 0 0 0 1.72 0 .86.86 0 1 0 -1.72 0z" transform="translate(-114.96 -28.6)"/><path d="m680.69 333a1.15 1.15 0 1 0 1.15-1.15 1.15 1.15 0 0 0 -1.15 1.15z" transform="translate(-114.96 -28.6)"/><path d="m468.65 384.51a.75.75 0 0 0 .75.74.74.74 0 0 0 .74-.74.75.75 0 0 0 -.74-.75.76.76 0 0 0 -.75.75z" transform="translate(-114.96 -28.6)"/><path d="m537.34 330.69a1.12 1.12 0 1 0 1.11-1.11 1.11 1.11 0 0 0 -1.11 1.11z" transform="translate(-114.96 -28.6)"/><circle cx="473.24" cy="229.28" r=".91"/><circle cx="493.31" cy="126.47" r=".8"/><path d="m650.2 94.28a.89.89 0 1 0 .89-.89.89.89 0 0 0 -.89.89z" transform="translate(-114.96 -28.6)"/><circle cx="375.84" cy="383.55" r=".58"/><path d="m547.66 345.83a.94.94 0 1 0 .94-.94.94.94 0 0 0 -.94.94z" transform="translate(-114.96 -28.6)"/><path d="m595.91 272.21a1.19 1.19 0 1 0 1.18-1.19 1.18 1.18 0 0 0 -1.18 1.19z" transform="translate(-114.96 -28.6)"/><path d="m640 114.54a.91.91 0 0 0 1.81 0 .91.91 0 1 0 -1.81 0z" transform="translate(-114.96 -28.6)"/><path d="m668.4 101.7a.6.6 0 1 0 .6-.61.6.6 0 0 0 -.6.61z" transform="translate(-114.96 -28.6)"/><path d="m698.05 29.44a.83.83 0 0 0 .83.83.84.84 0 0 0 .84-.83.85.85 0 0 0 -.84-.84.84.84 0 0 0 -.83.84z" transform="translate(-114.96 -28.6)"/><path d="m341.16 424.38a.58.58 0 0 0 .57.57.57.57 0 0 0 0-1.14.58.58 0 0 0 -.57.57z" transform="translate(-114.96 -28.6)"/><path d="m405.91 327.46a.71.71 0 1 0 .71-.71.71.71 0 0 0 -.71.71z" transform="translate(-114.96 -28.6)"/><path d="m583.47 278a.61.61 0 0 0 .61.61.61.61 0 0 0 0-1.22.61.61 0 0 0 -.61.61z" transform="translate(-114.96 -28.6)"/><path d="m591.54 139.64a.87.87 0 0 0 1.73 0 .87.87 0 1 0 -1.73 0z" transform="translate(-114.96 -28.6)"/><circle cx="549.14" cy="60.26" r=".58"/><path d="m160.05 404.94a.72.72 0 1 0 .72-.72.72.72 0 0 0 -.72.72z" transform="translate(-114.96 -28.6)"/><path d="m353.1 415.89a.7.7 0 1 0 1.39 0 .7.7 0 1 0 -1.39 0z" transform="translate(-114.96 -28.6)"/><path d="m387.19 319.69a1 1 0 0 0 2 0 1 1 0 1 0 -2 0z" transform="translate(-114.96 -28.6)"/><path d="m451.83 259.66a.58.58 0 0 0 1.16 0 .58.58 0 0 0 -1.16 0z" transform="translate(-114.96 -28.6)"/><path d="m784.91 389.68a1.21 1.21 0 1 0 1.21-1.2 1.21 1.21 0 0 0 -1.21 1.2z" transform="translate(-114.96 -28.6)"/><path d="m351.84 393.48a.58.58 0 0 0 1.15 0 .58.58 0 0 0 -1.15 0z" transform="translate(-114.96 -28.6)"/><circle cx="248.64" cy="277.81" r="1.01"/><path d="m409.14 236.08a.94.94 0 1 0 1.87 0 .94.94 0 0 0 -1.87 0z" transform="translate(-114.96 -28.6)"/><path d="m433.19 426.13a.79.79 0 1 0 1.58 0 .79.79 0 0 0 -1.58 0z" transform="translate(-114.96 -28.6)"/><path d="m362.56 381.05a.71.71 0 1 0 .7-.7.7.7 0 0 0 -.7.7z" transform="translate(-114.96 -28.6)"/><path d="m349.46 298.09a.81.81 0 1 0 .81-.81.81.81 0 0 0 -.81.81z" transform="translate(-114.96 -28.6)"/><circle cx="187.7" cy="425.7" r=".54"/><path d="m377.23 409.37a.89.89 0 1 0 .89-.89.89.89 0 0 0 -.89.89z" transform="translate(-114.96 -28.6)"/><circle cx="337.9" cy="334.05" r="1.19"/><path d="m530.92 324.6a.95.95 0 1 0 .94-1 .94.94 0 0 0 -.94 1z" transform="translate(-114.96 -28.6)"/><path d="m273 585.67a1 1 0 1 0 1-1 1 1 0 0 0 -1 1z" transform="translate(-114.96 -28.6)"/><path d="m455.52 338.78a.58.58 0 0 0 .59.59.59.59 0 1 0 0-1.18.58.58 0 0 0 -.59.59z" transform="translate(-114.96 -28.6)"/><path d="m543.13 291.26a.67.67 0 1 0 1.34 0 .67.67 0 0 0 -1.34 0z" transform="translate(-114.96 -28.6)"/><circle cx=".79" cy="374.67" r=".79"/><circle cx="349.34" cy="329.79" r="1.11"/><path d="m549.89 319.69a1.2 1.2 0 1 0 1.2-1.2 1.19 1.19 0 0 0 -1.2 1.2z" transform="translate(-114.96 -28.6)"/><circle cx="105.38" cy="589.73" r="1.44"/><path d="m280.79 397.42a.82.82 0 1 0 1.64 0 .82.82 0 1 0 -1.64 0z" transform="translate(-114.96 -28.6)"/><path d="m266.12 350.53a.87.87 0 1 0 .87-.87.87.87 0 0 0 -.87.87z" transform="translate(-114.96 -28.6)"/><path d="m546 520.38a1.38 1.38 0 1 0 1.38-1.38 1.38 1.38 0 0 0 -1.38 1.38z" transform="translate(-114.96 -28.6)"/><circle cx="209.63" cy="398.56" r=".66"/><path d="m293.59 364.77a1.43 1.43 0 1 0 1.43-1.43 1.43 1.43 0 0 0 -1.43 1.43z" transform="translate(-114.96 -28.6)"/><path d="m318.32 676.33a1.43 1.43 0 1 0 1.42-1.42 1.43 1.43 0 0 0 -1.42 1.42z" transform="translate(-114.96 -28.6)"/><path d="m393.14 494.29a1.23 1.23 0 1 0 1.23-1.22 1.23 1.23 0 0 0 -1.23 1.22z" transform="translate(-114.96 -28.6)"/><path d="m373 561.58a1.13 1.13 0 1 0 1.12-1.13 1.12 1.12 0 0 0 -1.12 1.13z" transform="translate(-114.96 -28.6)"/><path d="m637.64 612.2a1.2 1.2 0 1 0 1.2-1.2 1.2 1.2 0 0 0 -1.2 1.2z" transform="translate(-114.96 -28.6)"/><path d="m364.89 635.77a1.15 1.15 0 1 0 1.15-1.15 1.15 1.15 0 0 0 -1.15 1.15z" transform="translate(-114.96 -28.6)"/><path d="m955 387a1.45 1.45 0 0 0 2.89 0 1.45 1.45 0 1 0 -2.89 0z" transform="translate(-114.96 -28.6)"/><circle cx="147.42" cy="465.67" r="1.23"/><path d="m299.94 411.88a1.32 1.32 0 1 0 1.31-1.32 1.31 1.31 0 0 0 -1.31 1.32z" transform="translate(-114.96 -28.6)"/><path d="m218.24 287.06a.89.89 0 1 0 .89-.89.88.88 0 0 0 -.89.89z" transform="translate(-114.96 -28.6)"/><path d="m222.9 305.43a.66.66 0 1 0 .66-.67.66.66 0 0 0 -.66.67z" transform="translate(-114.96 -28.6)"/><circle cx="112.93" cy="290.17" r="1.08"/><path d="m235.36 356.66a1.42 1.42 0 0 0 2.83 0 1.42 1.42 0 1 0 -2.83 0z" transform="translate(-114.96 -28.6)"/><circle cx="90.01" cy="225.6" r=".78"/><path d="m211 276a.74.74 0 1 0 .73-.73.73.73 0 0 0 -.73.73z" transform="translate(-114.96 -28.6)"/><path d="m525.93 488.71a.74.74 0 1 0 .73-.74.73.73 0 0 0 -.73.74z" transform="translate(-114.96 -28.6)"/><path d="m225.3 485.63a1.31 1.31 0 1 0 1.31-1.31 1.3 1.3 0 0 0 -1.31 1.31z" transform="translate(-114.96 -28.6)"/><path d="m211.08 401.44a1.45 1.45 0 1 0 1.44-1.44 1.44 1.44 0 0 0 -1.44 1.44z" transform="translate(-114.96 -28.6)"/><path d="m218 433.66a1.39 1.39 0 1 0 1.39-1.39 1.39 1.39 0 0 0 -1.39 1.39z" transform="translate(-114.96 -28.6)"/><path d="m229.46 436.93a.68.68 0 1 0 .68-.68.68.68 0 0 0 -.68.68z" transform="translate(-114.96 -28.6)"/><path d="m213.3 396a.84.84 0 1 0 .84-.84.83.83 0 0 0 -.84.84z" transform="translate(-114.96 -28.6)"/><path d="m230.83 464.13a1.19 1.19 0 1 0 1.18-1.19 1.18 1.18 0 0 0 -1.18 1.19z" transform="translate(-114.96 -28.6)"/><path d="m239.33 460.15a.95.95 0 1 0 .95-.95.94.94 0 0 0 -.95.95z" transform="translate(-114.96 -28.6)"/><path d="m215.05 452.09a.68.68 0 1 0 .67-.68.67.67 0 0 0 -.67.68z" transform="translate(-114.96 -28.6)"/><path d="m214.21 442.22a1.17 1.17 0 1 0 1.17-1.17 1.17 1.17 0 0 0 -1.17 1.17z" transform="translate(-114.96 -28.6)"/><path d="m615.82 422.81a.8.8 0 0 0 1.6 0 .8.8 0 1 0 -1.6 0z" transform="translate(-114.96 -28.6)"/><path d="m275.11 624.21a1.29 1.29 0 1 0 1.29-1.29 1.28 1.28 0 0 0 -1.29 1.29z" transform="translate(-114.96 -28.6)"/><path d="m872.92 622.82a1.42 1.42 0 1 0 1.41-1.41 1.41 1.41 0 0 0 -1.41 1.41z" transform="translate(-114.96 -28.6)"/><path d="m277.44 233a.81.81 0 1 0 .81-.81.82.82 0 0 0 -.81.81z" transform="translate(-114.96 -28.6)"/><circle cx="238.68" cy="136.59" r="1.23"/><path d="m346.64 148.2a.63.63 0 1 0 1.26 0 .63.63 0 0 0 -1.26 0z" transform="translate(-114.96 -28.6)"/><path d="m287.29 256.65a.67.67 0 1 0 .71-.65.67.67 0 0 0 -.71.65z" transform="translate(-114.96 -28.6)"/><path d="m755.67 368a1.31 1.31 0 1 0 1.31-1.31 1.31 1.31 0 0 0 -1.31 1.31z" transform="translate(-114.96 -28.6)"/><circle cx="253.51" cy="477.06" r="1.02"/><path d="m541.46 509.26a.76.76 0 1 0 .76-.76.76.76 0 0 0 -.76.76z" transform="translate(-114.96 -28.6)"/><path d="m267.3 225.88a.88.88 0 1 0 .88-.88.87.87 0 0 0 -.88.88z" transform="translate(-114.96 -28.6)"/><circle cx="350.13" cy="528.13" r=".94"/><path d="m281.52 157.94a.94.94 0 1 0 .93-.93.93.93 0 0 0 -.93.93z" transform="translate(-114.96 -28.6)"/><circle cx="202.55" cy="165.31" r=".66"/><path d="m839.38 640.13a1.15 1.15 0 1 0 1.14-1.14 1.15 1.15 0 0 0 -1.14 1.14z" transform="translate(-114.96 -28.6)"/><path d="m373.78 151.66a1.29 1.29 0 1 0 1.29-1.29 1.28 1.28 0 0 0 -1.29 1.29z" transform="translate(-114.96 -28.6)"/><circle cx="299.14" cy="126.99" r="1.21"/><circle cx="262.55" cy="113.98" r="1.29"/><circle cx="269.41" cy="115.48" r=".87"/><path d="m655.2 475.69a1.24 1.24 0 0 0 2.47 0 1.24 1.24 0 1 0 -2.47 0z" transform="translate(-114.96 -28.6)"/><path d="m448.86 164.35a1 1 0 1 0 1-1 1 1 0 0 0 -1 1z" transform="translate(-114.96 -28.6)"/><circle cx="243.2" cy="120.01" r="1.37"/><path d="m346.81 130.9a1.39 1.39 0 1 0 1.38-1.38 1.38 1.38 0 0 0 -1.38 1.38z" transform="translate(-114.96 -28.6)"/><path d="m352.52 155.29a1.1 1.1 0 1 0 1.1-1.1 1.1 1.1 0 0 0 -1.1 1.1z" transform="translate(-114.96 -28.6)"/><circle cx="249.74" cy="124.34" r="1.31"/><circle cx="250.81" cy="103.35" r="1.05"/><path d="m299.57 131.51a1.3 1.3 0 1 0 1.29-1.29 1.29 1.29 0 0 0 -1.29 1.29z" transform="translate(-114.96 -28.6)"/><path d="m158.21 393.87a1.28 1.28 0 1 0 1.28-1.28 1.28 1.28 0 0 0 -1.28 1.28z" transform="translate(-114.96 -28.6)"/><path d="m322.85 130.55a1.12 1.12 0 1 0 1.12-1.11 1.12 1.12 0 0 0 -1.12 1.11z" transform="translate(-114.96 -28.6)"/><circle cx="192.16" cy="104.96" r="1.03"/><circle cx="96.46" cy="538.4" r="1.09"/><path d="m787.54 625.15a.94.94 0 1 0 .94-.94.94.94 0 0 0 -.94.94z" transform="translate(-114.96 -28.6)"/><circle cx="668.98" cy="601.24" r=".69"/><circle cx="668.79" cy="601.29" r=".94"/><path d="m801 537.09a1.39 1.39 0 1 0 1.38-1.39 1.38 1.38 0 0 0 -1.38 1.39z" transform="translate(-114.96 -28.6)"/><path d="m241.62 232.32a1.28 1.28 0 1 0 1.28-1.32 1.27 1.27 0 0 0 -1.28 1.32z" transform="translate(-114.96 -28.6)"/><path d="m315.8 155.7a.91.91 0 1 0 1.81 0 .91.91 0 0 0 -1.81 0z" transform="translate(-114.96 -28.6)"/><path d="m264.17 137.25a.93.93 0 1 0 .93-.93.93.93 0 0 0 -.93.93z" transform="translate(-114.96 -28.6)"/><path d="m203.21 189.12a1 1 0 1 0 1-1 1 1 0 0 0 -1 1z" transform="translate(-114.96 -28.6)"/><path d="m217.92 167.83a1.11 1.11 0 1 0 1.11-1.1 1.11 1.11 0 0 0 -1.11 1.1z" transform="translate(-114.96 -28.6)"/><path d="m252.33 137.29a.64.64 0 0 0 .63.64.64.64 0 0 0 0-1.27.63.63 0 0 0 -.63.63z" transform="translate(-114.96 -28.6)"/><path d="m232.81 167.09a1.35 1.35 0 1 0 1.35-1.35 1.34 1.34 0 0 0 -1.35 1.35z" transform="translate(-114.96 -28.6)"/><circle cx="136.6" cy="117.98" r=".71"/><path d="m253.65 227.48a.7.7 0 1 0 .7-.7.7.7 0 0 0 -.7.7z" transform="translate(-114.96 -28.6)"/><path d="m249.81 144.87a.64.64 0 1 0 .64-.64.64.64 0 0 0 -.64.64z" transform="translate(-114.96 -28.6)"/><path d="m268.28 135.13a1.23 1.23 0 1 0 1.23-1.23 1.23 1.23 0 0 0 -1.23 1.23z" transform="translate(-114.96 -28.6)"/><path d="m268.77 138.55a.81.81 0 1 0 .81-.81.81.81 0 0 0 -.81.81z" transform="translate(-114.96 -28.6)"/><path d="m441.24 367.06a1.32 1.32 0 1 0 1.31-1.32 1.31 1.31 0 0 0 -1.31 1.32z" transform="translate(-114.96 -28.6)"/><path d="m457 370.87a1.37 1.37 0 1 0 1.37-1.37 1.37 1.37 0 0 0 -1.37 1.37z" transform="translate(-114.96 -28.6)"/><path d="m443.63 372.67a.77.77 0 1 0 .77-.77.76.76 0 0 0 -.77.77z" transform="translate(-114.96 -28.6)"/><path d="m431.48 360.73a1.36 1.36 0 1 0 1.36-1.36 1.36 1.36 0 0 0 -1.36 1.36z" transform="translate(-114.96 -28.6)"/><circle cx="249.3" cy="513.73" r="1.33"/><path d="m350.09 403.51a1.28 1.28 0 1 0 1.28-1.29 1.28 1.28 0 0 0 -1.28 1.29z" transform="translate(-114.96 -28.6)"/><circle cx="255.98" cy="49.12" r="1.39"/><path d="m307.11 108.93a.71.71 0 1 0 .71-.71.71.71 0 0 0 -.71.71z" transform="translate(-114.96 -28.6)"/><path d="m312.26 104a.71.71 0 1 0 .71-.71.71.71 0 0 0 -.71.71z" transform="translate(-114.96 -28.6)"/><path d="m319.91 67.78a1.34 1.34 0 1 0 1.33-1.34 1.33 1.33 0 0 0 -1.33 1.34z" transform="translate(-114.96 -28.6)"/><path d="m354.43 66.24a1.21 1.21 0 1 0 1.2-1.21 1.2 1.2 0 0 0 -1.2 1.21z" transform="translate(-114.96 -28.6)"/><circle cx="230.32" cy="29.36" r="1.31"/><circle cx="218.75" cy="43.75" r=".86"/><circle cx="226.63" cy="41.11" r=".94"/><circle cx="223.71" cy="43.54" r="1.19"/><path d="m335.2 56.06a1.13 1.13 0 1 0 1.13-1.13 1.13 1.13 0 0 0 -1.13 1.13z" transform="translate(-114.96 -28.6)"/><path d="m329.17 58.44a1 1 0 1 0 1-1 1 1 0 0 0 -1 1z" transform="translate(-114.96 -28.6)"/><path d="m334.21 67.53a1.25 1.25 0 1 0 1.25-1.25 1.25 1.25 0 0 0 -1.25 1.25z" transform="translate(-114.96 -28.6)"/><circle cx="207.74" cy="31.98" r="1.27"/><path d="m337.48 62.46a1.33 1.33 0 1 0 1.33-1.33 1.32 1.32 0 0 0 -1.33 1.33z" transform="translate(-114.96 -28.6)"/><path d="m366.18 95.38a.93.93 0 1 0 .93-.93.92.92 0 0 0 -.93.93z" transform="translate(-114.96 -28.6)"/><path d="m341.56 65.32a1.17 1.17 0 1 0 1.16-1.16 1.16 1.16 0 0 0 -1.16 1.16z" transform="translate(-114.96 -28.6)"/><path d="m340.1 78.18a1.29 1.29 0 1 0 1.29-1.29 1.29 1.29 0 0 0 -1.29 1.29z" transform="translate(-114.96 -28.6)"/><path d="m348.19 79.49a1.27 1.27 0 1 0 1.27-1.26 1.26 1.26 0 0 0 -1.27 1.26z" transform="translate(-114.96 -28.6)"/><circle cx="222.46" cy="47.41" r="1.1"/><circle cx="208.27" cy="48.51" r="1.08"/><path d="m341.32 77.67a.91.91 0 1 0 .91-.91.91.91 0 0 0 -.91.91z" transform="translate(-114.96 -28.6)"/><circle cx="202.27" cy="42.98" r="1.43"/><circle cx="226.13" cy="58.42" r=".71"/><path d="m341.64 98.72a1.4 1.4 0 1 0 1.4-1.4 1.4 1.4 0 0 0 -1.4 1.4z" transform="translate(-114.96 -28.6)"/><circle cx="194.05" cy="54.23" r="1.13"/><circle cx="212.51" cy="36.54" r="1.01"/><path d="m352.81 69.5a1.3 1.3 0 1 0 1.3-1.29 1.3 1.3 0 0 0 -1.3 1.29z" transform="translate(-114.96 -28.6)"/><path d="m280.06 136.81a1.45 1.45 0 1 0 1.45-1.45 1.45 1.45 0 0 0 -1.45 1.45z" transform="translate(-114.96 -28.6)"/><circle cx="259.26" cy="95.54" r=".87"/><path d="m299.57 98.72a1.22 1.22 0 1 0 1.22-1.21 1.22 1.22 0 0 0 -1.22 1.21z" transform="translate(-114.96 -28.6)"/><circle cx="191.75" cy="65.95" r="1.1"/><path d="m332.76 114a1.12 1.12 0 1 0 1.12-1.12 1.12 1.12 0 0 0 -1.12 1.12z" transform="translate(-114.96 -28.6)"/><path d="m635.28 370.51a.88.88 0 1 0 1.76 0 .88.88 0 1 0 -1.76 0z" transform="translate(-114.96 -28.6)"/><path d="m368.47 129.59a.9.9 0 1 0 .9-.9.9.9 0 0 0 -.9.9z" transform="translate(-114.96 -28.6)"/><path d="m457.18 168.12a1.22 1.22 0 1 0 1.21-1.22 1.21 1.21 0 0 0 -1.21 1.22z" transform="translate(-114.96 -28.6)"/><path d="m356.27 184.11a.78.78 0 1 0 .78-.78.78.78 0 0 0 -.78.78z" transform="translate(-114.96 -28.6)"/><circle cx="462.93" cy="117.98" r="1.06"/><path d="m582.78 156.94a.65.65 0 1 0 .65-.65.65.65 0 0 0 -.65.65z" transform="translate(-114.96 -28.6)"/><circle cx="488.35" cy="129.23" r="1.03"/><path d="m589.8 171.05a1.1 1.1 0 0 0 2.2 0 1.1 1.1 0 0 0 -2.2 0z" transform="translate(-114.96 -28.6)"/><path d="m581.52 185a.9.9 0 1 0 .9-.89.89.89 0 0 0 -.9.89z" transform="translate(-114.96 -28.6)"/><path d="m527.12 178.74a1.13 1.13 0 0 0 2.26 0 1.13 1.13 0 0 0 -2.26 0z" transform="translate(-114.96 -28.6)"/><path d="m555.25 152.32a1.25 1.25 0 1 0 1.25-1.25 1.25 1.25 0 0 0 -1.25 1.25z" transform="translate(-114.96 -28.6)"/><path d="m564.6 164.84a.76.76 0 1 0 .76-.76.76.76 0 0 0 -.76.76z" transform="translate(-114.96 -28.6)"/><path d="m303.93 102.75a1 1 0 1 0 1-1 1 1 0 0 0 -1 1z" transform="translate(-114.96 -28.6)"/><path d="m227.33 147.74a.88.88 0 1 0 .88-.88.87.87 0 0 0 -.88.88z" transform="translate(-114.96 -28.6)"/><path d="m189.08 175.42a1.4 1.4 0 1 0 1.39-1.39 1.4 1.4 0 0 0 -1.39 1.39z" transform="translate(-114.96 -28.6)"/><circle cx="66.45" cy="145.17" r=".96"/><circle cx="184.04" cy="58.38" r="1.07"/><path d="m285.08 245.61a1 1 0 1 0 1-1 1 1 0 0 0 -1 1z" transform="translate(-114.96 -28.6)"/><path d="m243.63 276a1.2 1.2 0 1 0 1.19-1.19 1.19 1.19 0 0 0 -1.19 1.19z" transform="translate(-114.96 -28.6)"/><circle cx="110.93" cy="260.45" r="1.44"/><path d="m933.83 495.52a1.25 1.25 0 1 0 1.25-1.25 1.25 1.25 0 0 0 -1.25 1.25z" transform="translate(-114.96 -28.6)"/><path d="m310 250.31a1 1 0 1 0 .95-.95 1 1 0 0 0 -.95.95z" transform="translate(-114.96 -28.6)"/><circle cx="93.53" cy="262.99" r=".64"/><path d="m276.4 470.79a1 1 0 1 0 1-1 1 1 0 0 0 -1 1z" transform="translate(-114.96 -28.6)"/><path d="m203.28 368a1.34 1.34 0 1 0 1.34-1.34 1.34 1.34 0 0 0 -1.34 1.34z" transform="translate(-114.96 -28.6)"/><circle cx="609.88" cy="520.64" r="1.43"/><path d="m420.86 370.23a1 1 0 1 0 1-1 1 1 0 0 0 -1 1z" transform="translate(-114.96 -28.6)"/><path d="m379.09 397a1.43 1.43 0 1 0 1.42-1.42 1.42 1.42 0 0 0 -1.42 1.42z" transform="translate(-114.96 -28.6)"/><circle cx="186.55" cy="344.36" r="1.02"/><path d="m338.8 407.06a1.25 1.25 0 1 0 1.25-1.24 1.25 1.25 0 0 0 -1.25 1.24z" transform="translate(-114.96 -28.6)"/><path d="m150.24 540.91a1.43 1.43 0 1 0 1.43-1.43 1.43 1.43 0 0 0 -1.43 1.43z" transform="translate(-114.96 -28.6)"/><path d="m342.63 419a1.26 1.26 0 1 0 1.26-1.26 1.25 1.25 0 0 0 -1.26 1.26z" transform="translate(-114.96 -28.6)"/><path d="m401.87 389.68a1.18 1.18 0 1 0 1.18-1.18 1.18 1.18 0 0 0 -1.18 1.18z" transform="translate(-114.96 -28.6)"/><path d="m418 379.13a1.14 1.14 0 1 0 1.14-1.14 1.14 1.14 0 0 0 -1.14 1.14z" transform="translate(-114.96 -28.6)"/><path d="m425.08 353.2a.71.71 0 1 0 .71-.71.71.71 0 0 0 -.71.71z" transform="translate(-114.96 -28.6)"/><circle cx="304.52" cy="328.45" r="1.25"/><path d="m432.16 385.45a1.14 1.14 0 1 0 1.14-1.14 1.14 1.14 0 0 0 -1.14 1.14z" transform="translate(-114.96 -28.6)"/><path d="m471.52 362.54a.69.69 0 1 0 .69-.69.69.69 0 0 0 -.69.69z" transform="translate(-114.96 -28.6)"/><path d="m547.37 392.75a.65.65 0 1 0 .65-.65.65.65 0 0 0 -.65.65z" transform="translate(-114.96 -28.6)"/><path d="m551.17 396.69a1.25 1.25 0 1 0 1.25-1.25 1.24 1.24 0 0 0 -1.25 1.25z" transform="translate(-114.96 -28.6)"/><path d="m220.71 369.34a1.09 1.09 0 1 0 1.09-1.09 1.08 1.08 0 0 0 -1.09 1.09z" transform="translate(-114.96 -28.6)"/><path d="m205.37 287.84a1 1 0 1 0 1-1 1 1 0 0 0 -1 1z" transform="translate(-114.96 -28.6)"/><path d="m287.28 481a.93.93 0 1 0 .93-.92.93.93 0 0 0 -.93.92z" transform="translate(-114.96 -28.6)"/><circle cx="81.32" cy="460.84" r=".73"/><circle cx="73.38" cy="358.38" r="1.36"/><path d="m215.59 353.75a1.18 1.18 0 1 0 1.18-1.17 1.17 1.17 0 0 0 -1.18 1.17z" transform="translate(-114.96 -28.6)"/><path d="m232.07 430.82a1.13 1.13 0 1 0 2.26 0 1.13 1.13 0 0 0 -2.26 0z" transform="translate(-114.96 -28.6)"/><path d="m223.25 470.79a1.46 1.46 0 1 0 1.45-1.45 1.45 1.45 0 0 0 -1.45 1.45z" transform="translate(-114.96 -28.6)"/><path d="m219.7 479a.74.74 0 1 0 .73-.74.73.73 0 0 0 -.73.74z" transform="translate(-114.96 -28.6)"/><circle cx="385.4" cy="493.16" r="1"/><path d="m403.94 445a.71.71 0 1 0 .71-.71.71.71 0 0 0 -.71.71z" transform="translate(-114.96 -28.6)"/><path d="m415 436.87a.63.63 0 0 0 1.26 0 .63.63 0 0 0 -1.26 0z" transform="translate(-114.96 -28.6)"/><path d="m274.81 219.67a1.24 1.24 0 1 0 1.24-1.24 1.23 1.23 0 0 0 -1.24 1.24z" transform="translate(-114.96 -28.6)"/><path d="m366.36 174.79a1.31 1.31 0 1 0 1.31-1.3 1.31 1.31 0 0 0 -1.31 1.3z" transform="translate(-114.96 -28.6)"/><path d="m358.74 175.7a1.43 1.43 0 1 0 1.43-1.43 1.43 1.43 0 0 0 -1.43 1.43z" transform="translate(-114.96 -28.6)"/><path d="m275.41 180.69a.65.65 0 1 0 .65-.65.65.65 0 0 0 -.65.65z" transform="translate(-114.96 -28.6)"/><path d="m367.37 144.06a1.1 1.1 0 1 0 1.1-1.1 1.1 1.1 0 0 0 -1.1 1.1z" transform="translate(-114.96 -28.6)"/><circle cx="157.05" cy="116.68" r="1.29"/><circle cx="162.35" cy="104.07" r=".89"/><path d="m280 138.32a1.08 1.08 0 1 0 1.08-1.07 1.07 1.07 0 0 0 -1.08 1.07z" transform="translate(-114.96 -28.6)"/><path d="m463.06 641.87a1.25 1.25 0 1 0 1.24-1.25 1.24 1.24 0 0 0 -1.24 1.25z" transform="translate(-114.96 -28.6)"/><path d="m447.27 155.35a1.11 1.11 0 1 0 1.11-1.11 1.11 1.11 0 0 0 -1.11 1.11z" transform="translate(-114.96 -28.6)"/><path d="m397.45 165.7a.65.65 0 0 0 .65.65.65.65 0 1 0 0-1.3.65.65 0 0 0 -.65.65z" transform="translate(-114.96 -28.6)"/><path d="m956.42 616.4a.76.76 0 0 0 .75.75.75.75 0 0 0 .74-.75.74.74 0 0 0 -.74-.74.75.75 0 0 0 -.75.74z" transform="translate(-114.96 -28.6)"/><path d="m535.83 165.66a1.35 1.35 0 1 0 1.34-1.35 1.35 1.35 0 0 0 -1.34 1.35z" transform="translate(-114.96 -28.6)"/><path d="m500.07 181.4a1.12 1.12 0 1 0 1.11-1.12 1.12 1.12 0 0 0 -1.11 1.12z" transform="translate(-114.96 -28.6)"/><path d="m378.89 136a1.31 1.31 0 1 0 1.31-1.31 1.31 1.31 0 0 0 -1.31 1.31z" transform="translate(-114.96 -28.6)"/><path d="m372.46 132.37a.81.81 0 1 0 .81-.8.81.81 0 0 0 -.81.8z" transform="translate(-114.96 -28.6)"/><path d="m327.59 58.62a.87.87 0 1 0 .87-.87.87.87 0 0 0 -.87.87z" transform="translate(-114.96 -28.6)"/><path d="m360.71 69.21a1.43 1.43 0 1 0 1.42-1.43 1.43 1.43 0 0 0 -1.42 1.43z" transform="translate(-114.96 -28.6)"/><circle cx="238.72" cy="55.22" r="1.45"/><path d="m359.13 85a1.15 1.15 0 1 0 1.15-1.14 1.15 1.15 0 0 0 -1.15 1.14z" transform="translate(-114.96 -28.6)"/><path d="m349.72 123.27a1.43 1.43 0 1 0 1.43-1.43 1.43 1.43 0 0 0 -1.43 1.43z" transform="translate(-114.96 -28.6)"/><circle cx="259.06" cy="116.76" r=".66"/><circle cx="164.87" cy="180.09" r=".96"/><path d="m910.1 605.67a.9.9 0 1 0 .9-.91.9.9 0 0 0 -.9.91z" transform="translate(-114.96 -28.6)"/><path d="m345.28 172.82a1.36 1.36 0 1 0 1.36-1.36 1.35 1.35 0 0 0 -1.36 1.36z" transform="translate(-114.96 -28.6)"/><circle cx="231.57" cy="125.32" r="1.29"/><circle cx="269.83" cy="124.58" r="1.35"/><path d="m367.63 136.81a1.35 1.35 0 1 0 1.34-1.35 1.35 1.35 0 0 0 -1.34 1.35z" transform="translate(-114.96 -28.6)"/><path d="m351.6 110.12a1 1 0 1 0 1-1 1 1 0 0 0 -1 1z" transform="translate(-114.96 -28.6)"/><path d="m965.14 624.38a1.26 1.26 0 1 0 1.26-1.26 1.25 1.25 0 0 0 -1.26 1.26z" transform="translate(-114.96 -28.6)"/><path d="m629.49 373.4a.81.81 0 1 0 .81-.81.81.81 0 0 0 -.81.81z" transform="translate(-114.96 -28.6)"/><path d="m573.36 169.62a1.43 1.43 0 1 0 1.43-1.43 1.43 1.43 0 0 0 -1.43 1.43z" transform="translate(-114.96 -28.6)"/><path d="m573 169.4a1 1 0 1 0 1-1 1 1 0 0 0 -1 1z" transform="translate(-114.96 -28.6)"/><path d="m590.62 177.71a1.38 1.38 0 1 0 1.38-1.37 1.38 1.38 0 0 0 -1.38 1.37z" transform="translate(-114.96 -28.6)"/><circle cx="467.15" cy="143.66" r="1.12"/><path d="m557.48 153.61a.93.93 0 1 0 .93-.92.93.93 0 0 0 -.93.92z" transform="translate(-114.96 -28.6)"/><path d="m551.09 168.62a1.42 1.42 0 1 0 1.42-1.42 1.43 1.43 0 0 0 -1.42 1.42z" transform="translate(-114.96 -28.6)"/><path d="m539.46 174.15a1.29 1.29 0 1 0 1.29-1.29 1.29 1.29 0 0 0 -1.29 1.29z" transform="translate(-114.96 -28.6)"/><circle cx="425.11" cy="126.99" r="1.42"/><path d="m549 160.8a.9.9 0 1 0 .9-.9.9.9 0 0 0 -.9.9z" transform="translate(-114.96 -28.6)"/><path d="m236.83 293.67a.74.74 0 0 0 .74.74.74.74 0 1 0 0-1.48.74.74 0 0 0 -.74.74z" transform="translate(-114.96 -28.6)"/><path d="m241.31 310a1 1 0 1 0 1-1 1 1 0 0 0 -1 1z" transform="translate(-114.96 -28.6)"/><circle cx="153.44" cy="428.59" r=".71"/><path d="m237.82 361.06a.89.89 0 1 0 .89-.89.89.89 0 0 0 -.89.89z" transform="translate(-114.96 -28.6)"/><path d="m306.71 363.84a1.3 1.3 0 1 0 1.29-1.3 1.29 1.29 0 0 0 -1.29 1.3z" transform="translate(-114.96 -28.6)"/><circle cx="254.52" cy="596.1" r=".71"/><circle cx="219.4" cy="537.34" r=".68"/><path d="m280.42 274.11a.92.92 0 1 0 .92-.92.92.92 0 0 0 -.92.92z" transform="translate(-114.96 -28.6)"/><path d="m726.27 469.11a.73.73 0 1 0 .73-.73.73.73 0 0 0 -.73.73z" transform="translate(-114.96 -28.6)"/><path d="m263.16 387.46a.85.85 0 1 0 .85-.85.85.85 0 0 0 -.85.85z" transform="translate(-114.96 -28.6)"/><path d="m324.92 465.54a.69.69 0 1 0 .69-.69.69.69 0 0 0 -.69.69z" transform="translate(-114.96 -28.6)"/><path d="m375.08 433a.73.73 0 1 0 .73-.73.72.72 0 0 0 -.73.73z" transform="translate(-114.96 -28.6)"/><path d="m387.74 449.11a.93.93 0 1 0 .93-.93.93.93 0 0 0 -.93.93z" transform="translate(-114.96 -28.6)"/><path d="m357.51 485.63a1.23 1.23 0 1 0 1.23-1.23 1.23 1.23 0 0 0 -1.23 1.23z" transform="translate(-114.96 -28.6)"/><path d="m438.27 366a.73.73 0 0 0 1.46 0 .73.73 0 1 0 -1.46 0z" transform="translate(-114.96 -28.6)"/><path d="m451.35 366.68a1.32 1.32 0 1 0 1.32-1.31 1.32 1.32 0 0 0 -1.32 1.31z" transform="translate(-114.96 -28.6)"/><circle cx="273.8" cy="420.58" r="1.15"/><circle cx="274.64" cy="391.48" r="1.35"/><path d="m445.41 407.56a1.41 1.41 0 1 0 1.4-1.4 1.41 1.41 0 0 0 -1.4 1.4z" transform="translate(-114.96 -28.6)"/><path d="m397.5 459a1.08 1.08 0 1 0 1.08-1.08 1.08 1.08 0 0 0 -1.08 1.08z" transform="translate(-114.96 -28.6)"/><path d="m388.84 466a.9.9 0 1 0 .89-.9.9.9 0 0 0 -.89.9z" transform="translate(-114.96 -28.6)"/><path d="m408.61 473.07a1.39 1.39 0 1 0 1.39-1.39 1.38 1.38 0 0 0 -1.39 1.39z" transform="translate(-114.96 -28.6)"/><path d="m242.32 373a1.25 1.25 0 1 0 1.25-1.25 1.25 1.25 0 0 0 -1.25 1.25z" transform="translate(-114.96 -28.6)"/><path d="m282.34 475.44a1.44 1.44 0 1 0 1.43-1.43 1.43 1.43 0 0 0 -1.43 1.43z" transform="translate(-114.96 -28.6)"/><path d="m215.41 342.52a1.32 1.32 0 1 0 1.32-1.32 1.32 1.32 0 0 0 -1.32 1.32z" transform="translate(-114.96 -28.6)"/><path d="m312.06 310a1.39 1.39 0 1 0 1.39-1.39 1.4 1.4 0 0 0 -1.39 1.39z" transform="translate(-114.96 -28.6)"/><path d="m208.78 262.5a.89.89 0 1 0 .89-.89.89.89 0 0 0 -.89.89z" transform="translate(-114.96 -28.6)"/><path d="m206.44 271.66a1.21 1.21 0 1 0 1.21-1.21 1.21 1.21 0 0 0 -1.21 1.21z" transform="translate(-114.96 -28.6)"/><circle cx="177.25" cy="188.5" r=".87"/><path d="m220.75 271.37a.82.82 0 1 0 .82-.82.82.82 0 0 0 -.82.82z" transform="translate(-114.96 -28.6)"/><path d="m212.34 257.55a1.17 1.17 0 0 0 2.34 0 1.17 1.17 0 0 0 -2.34 0z" transform="translate(-114.96 -28.6)"/><circle cx="159.63" cy="171.56" r="1.12"/><circle cx="144.8" cy="219.52" r="1.24"/><path d="m335.52 162.35a1.18 1.18 0 1 0 1.17-1.17 1.17 1.17 0 0 0 -1.17 1.17z" transform="translate(-114.96 -28.6)"/><path d="m307.09 260.69a1.08 1.08 0 1 0 1.08-1.07 1.07 1.07 0 0 0 -1.08 1.07z" transform="translate(-114.96 -28.6)"/><path d="m325.43 242.77a.73.73 0 0 0 .72.73.73.73 0 0 0 .73-.73.73.73 0 0 0 -.73-.72.72.72 0 0 0 -.72.72z" transform="translate(-114.96 -28.6)"/><path d="m330.36 224.13a.85.85 0 1 0 .85-.85.85.85 0 0 0 -.85.85z" transform="translate(-114.96 -28.6)"/><path d="m340.4 193.09a1.29 1.29 0 1 0 2.57 0 1.29 1.29 0 0 0 -2.57 0z" transform="translate(-114.96 -28.6)"/><path d="m330.25 58.74a.73.73 0 0 0 1.45 0 .73.73 0 1 0 -1.45 0z" transform="translate(-114.96 -28.6)"/><path d="m352.6 100.84a1 1 0 1 0 1-1 1 1 0 0 0 -1 1z" transform="translate(-114.96 -28.6)"/><path d="m350 88.06a1.19 1.19 0 1 0 1.19-1.19 1.19 1.19 0 0 0 -1.19 1.19z" transform="translate(-114.96 -28.6)"/><path d="m335.37 62a1 1 0 1 0 1-1 1 1 0 0 0 -1 1z" transform="translate(-114.96 -28.6)"/><path d="m341.61 56.65a.6.6 0 1 0 .6-.59.59.59 0 0 0 -.6.59z" transform="translate(-114.96 -28.6)"/><circle cx="272.02" cy="104.97" r=".71"/><path d="m468.74 508.18a1 1 0 1 0 1-1 1 1 0 0 0 -1 1z" transform="translate(-114.96 -28.6)"/><path d="m318.86 136.28a.69.69 0 0 0 1.37 0 .69.69 0 0 0 -1.37 0z" transform="translate(-114.96 -28.6)"/><circle cx="156.1" cy="128.87" r="1.22"/><path d="m283 141.21a.58.58 0 1 0 .57-.57.58.58 0 0 0 -.57.57z" transform="translate(-114.96 -28.6)"/><circle cx="169.96" cy="127.66" r="1.09"/><path d="m301.93 143.19a.91.91 0 1 0 1.82 0 .91.91 0 1 0 -1.82 0z" transform="translate(-114.96 -28.6)"/><path d="m341.83 140.82a1.2 1.2 0 1 0 1.19-1.19 1.19 1.19 0 0 0 -1.19 1.19z" transform="translate(-114.96 -28.6)"/><path d="m697.81 360.46a1.07 1.07 0 1 0 1.07-1.07 1.07 1.07 0 0 0 -1.07 1.07z" transform="translate(-114.96 -28.6)"/><circle cx="198.66" cy="97.57" r=".66"/><circle cx="156.56" cy="109.18" r=".7"/><path d="m313 99.44a.7.7 0 1 0 1.4 0 .7.7 0 1 0 -1.4 0z" transform="translate(-114.96 -28.6)"/><path d="m305.94 197.35a.66.66 0 1 0 .66-.65.65.65 0 0 0 -.66.65z" transform="translate(-114.96 -28.6)"/><path d="m291.18 208.53a.84.84 0 0 0 1.67 0 .84.84 0 1 0 -1.67 0z" transform="translate(-114.96 -28.6)"/><path d="m309.3 183.86a1 1 0 0 0 2 0 1 1 0 1 0 -2 0z" transform="translate(-114.96 -28.6)"/><path d="m306.28 220.24a.63.63 0 1 0 1.25 0 .63.63 0 1 0 -1.25 0z" transform="translate(-114.96 -28.6)"/><circle cx="194.38" cy="193.88" r=".63"/><circle cx="225.01" cy="154.05" r=".56"/><path d="m321.24 222.14a1 1 0 1 0 2.09 0 1 1 0 0 0 -2.09 0z" transform="translate(-114.96 -28.6)"/><path d="m727 417a.77.77 0 1 0 .77-.77.77.77 0 0 0 -.77.77z" transform="translate(-114.96 -28.6)"/><path d="m307.76 234.82a1 1 0 1 0 .95-.95 1 1 0 0 0 -.95.95z" transform="translate(-114.96 -28.6)"/><path d="m328.73 145.51a.92.92 0 1 0 .92-.92.92.92 0 0 0 -.92.92z" transform="translate(-114.96 -28.6)"/><circle cx="123.31" cy="149.48" r=".91"/><path d="m253 180.89a.74.74 0 1 0 .74-.74.74.74 0 0 0 -.74.74z" transform="translate(-114.96 -28.6)"/><path d="m788 636.41a.58.58 0 1 0 .57-.58.58.58 0 0 0 -.57.58z" transform="translate(-114.96 -28.6)"/><circle cx="125.61" cy="187.01" r="1.06"/><path d="m249.64 178.93a.74.74 0 1 0 .74-.74.74.74 0 0 0 -.74.74z" transform="translate(-114.96 -28.6)"/><path d="m495.77 172.44a1.16 1.16 0 1 0 1.16-1.15 1.16 1.16 0 0 0 -1.16 1.15z" transform="translate(-114.96 -28.6)"/><path d="m446.23 156.53a.65.65 0 1 0 .65-.65.65.65 0 0 0 -.65.65z" transform="translate(-114.96 -28.6)"/><circle cx="245.33" cy="111.3" r=".9"/><path d="m499.16 181.59a1.13 1.13 0 1 0 1.13-1.13 1.13 1.13 0 0 0 -1.13 1.13z" transform="translate(-114.96 -28.6)"/><circle cx="462.12" cy="389.09" r="1"/><path d="m714.49 113.66a.76.76 0 1 0 .76-.76.76.76 0 0 0 -.76.76z" transform="translate(-114.96 -28.6)"/><path d="m710.09 117.61a.66.66 0 1 0 .66-.67.66.66 0 0 0 -.66.67z" transform="translate(-114.96 -28.6)"/><circle cx="598.92" cy="82.4" r=".86"/><path d="m445.28 166.42a.67.67 0 1 0 .67-.67.67.67 0 0 0 -.67.67z" transform="translate(-114.96 -28.6)"/><circle cx="369.95" cy="149.38" r="1.2"/><circle cx="355.53" cy="145.08" r=".72"/><circle cx="725.56" cy="424.48" r=".72"/><path d="m419.63 148.2a1.1 1.1 0 1 0 1.1-1.09 1.1 1.1 0 0 0 -1.1 1.09z" transform="translate(-114.96 -28.6)"/><path d="m259.09 150.71a.68.68 0 1 0 .68-.68.68.68 0 0 0 -.68.68z" transform="translate(-114.96 -28.6)"/><path d="m332.18 129.74a.64.64 0 0 0 .64.64.64.64 0 1 0 -.64-.64z" transform="translate(-114.96 -28.6)"/><path d="m325.82 91.21a.65.65 0 1 0 .65-.64.64.64 0 0 0 -.65.64z" transform="translate(-114.96 -28.6)"/><path d="m330.58 101.86a.64.64 0 1 0 1.28 0 .64.64 0 1 0 -1.28 0z" transform="translate(-114.96 -28.6)"/><path d="m259.59 144.78a.7.7 0 0 0 .7.7.7.7 0 0 0 .71-.7.71.71 0 0 0 -.71-.71.7.7 0 0 0 -.7.71z" transform="translate(-114.96 -28.6)"/><path d="m218 238.76a1.22 1.22 0 1 0 1.21-1.21 1.21 1.21 0 0 0 -1.21 1.21z" transform="translate(-114.96 -28.6)"/><path d="m237.79 153.19a1 1 0 1 0 1-1 1 1 0 0 0 -1 1z" transform="translate(-114.96 -28.6)"/><path d="m241.21 153.07a.95.95 0 1 0 1.89 0 .95.95 0 0 0 -1.89 0z" transform="translate(-114.96 -28.6)"/><circle cx="109.76" cy="208.93" r=".77"/><path d="m268.64 130.22a.94.94 0 1 0 .94-.94.94.94 0 0 0 -.94.94z" transform="translate(-114.96 -28.6)"/><path d="m238.67 157.83a1.23 1.23 0 1 0 1.23-1.23 1.23 1.23 0 0 0 -1.23 1.23z" transform="translate(-114.96 -28.6)"/><circle cx="129.34" cy="124.5" r=".57"/><path d="m226.39 187.1a.79.79 0 0 0 1.58 0 .79.79 0 1 0 -1.58 0z" transform="translate(-114.96 -28.6)"/><path d="m230.47 173.27a.89.89 0 0 0 1.77 0 .89.89 0 1 0 -1.77 0z" transform="translate(-114.96 -28.6)"/><circle cx="187.27" cy="100.31" r=".88"/><circle cx="132.43" cy="132.32" r="1.01"/><path d="m291.44 172.68a1.16 1.16 0 1 0 1.15-1.15 1.15 1.15 0 0 0 -1.15 1.15z" transform="translate(-114.96 -28.6)"/><circle cx="183.97" cy="124.06" r=".69"/><circle cx="204.01" cy="90.13" r="1.21"/><path d="m555.33 625.6a.95.95 0 1 0 .95-.94.95.95 0 0 0 -.95.94z" transform="translate(-114.96 -28.6)"/><path d="m302.83 160.58a.68.68 0 0 0 1.36 0 .68.68 0 0 0 -1.36 0z" transform="translate(-114.96 -28.6)"/><circle cx="189.15" cy="144.81" r="1.05"/><path d="m335.93 170.11a.76.76 0 0 0 .76.76.77.77 0 0 0 .77-.76.78.78 0 0 0 -.77-.77.77.77 0 0 0 -.76.77z" transform="translate(-114.96 -28.6)"/><path d="m303.59 184.42a.57.57 0 1 0 .56-.57.57.57 0 0 0 -.56.57z" transform="translate(-114.96 -28.6)"/><path d="m307.06 166.86a1 1 0 1 0 1-1 1 1 0 0 0 -1 1z" transform="translate(-114.96 -28.6)"/><path d="m362.13 81.61a.78.78 0 0 0 1.56 0 .78.78 0 0 0 -1.56 0z" transform="translate(-114.96 -28.6)"/><path d="m359.65 77.31a.59.59 0 0 0 1.17 0 .59.59 0 1 0 -1.17 0z" transform="translate(-114.96 -28.6)"/><path d="m363.07 85.59a.72.72 0 1 0 .72-.72.72.72 0 0 0 -.72.72z" transform="translate(-114.96 -28.6)"/><path d="m371.22 92.76a1 1 0 1 0 1-1 1 1 0 0 0 -1 1z" transform="translate(-114.96 -28.6)"/><circle cx="231.64" cy="32.31" r=".8"/><circle cx="242.13" cy="32.37" r="1.13"/><path d="m350.43 64.68a1.07 1.07 0 1 0 1.07-1.07 1.06 1.06 0 0 0 -1.07 1.07z" transform="translate(-114.96 -28.6)"/><path d="m353.43 63.28a1 1 0 1 0 1-1 1 1 0 0 0 -1 1z" transform="translate(-114.96 -28.6)"/><path d="m368.35 83.77a.61.61 0 1 0 1.21 0 .61.61 0 1 0 -1.21 0z" transform="translate(-114.96 -28.6)"/><circle cx="253.28" cy="58.42" r=".98"/><path d="m354.75 72.15a1.06 1.06 0 1 0 1.06-1.06 1.06 1.06 0 0 0 -1.06 1.06z" transform="translate(-114.96 -28.6)"/><circle cx="236.1" cy="35.01" r=".9"/><circle cx="211.88" cy="42.95" r=".91"/><path d="m351 67.27a.58.58 0 0 0 .59.59.59.59 0 0 0 .6-.59.6.6 0 0 0 -.6-.6.59.59 0 0 0 -.59.6z" transform="translate(-114.96 -28.6)"/></g><path d="m201.19 38.2 5.09.98-4 3.8z" fill="#00273f" opacity=".3"/><path d="m189.58 49.06 12.7-6.08-8.23 11.25z" fill="#00273f" opacity=".1"/><path d="m184.04 58.38 6.6 2.46-4.82 9.28z" fill="#00273f" opacity=".4"/><path d="m189.58 49.06-5.54 9.32 10.01-4.15z" fill="#00273f" opacity=".4"/><path d="m204.04 52.28-9.99 1.95-3.41 6.61z" fill="#00273f" opacity=".1"/><path d="m198.06 62.34-4.01-7.78-2.3 11.39z" fill="#00273f" opacity=".1"/><path d="m205.22 67.7-7.16-5.36-6.31 3.61z" fill="#00273f" opacity=".1"/><path d="m192.85 71.52-1.1-5.57 6.96 4.89z" fill="#00273f" opacity=".1"/><path d="m198 75.4 18.26-2.14-11.04-5.56z" fill="#00273f" opacity=".1"/><path d="m215.2 29.84-7.46 2.14 4.77 4.56z" fill="#00273f" opacity=".3"/><path d="m206.28 39.18 5.6 3.77.63-6.41z" fill="#00273f" opacity=".3"/><path d="m201.19 38.2 6.55-6.22-1.46 7.2z" fill="#00273f" opacity=".3"/><path d="m194.05 54.56 7.14-16.36-11.61 10.86z" fill="#00273f" opacity=".3"/><path d="m221.36 27.45-6.16 2.39 6.17 3.53z" fill="#00273f" opacity=".1"/><path d="m230.32 29.36-3.08-1.31-2.12 5.72z" fill="#00273f" opacity=".1"/><path d="m237.44 29.84-16.08-2.39 6.4 9.27z" fill="#00273f" opacity=".1"/><path d="m245.58 33.4-3.45-1.03-1.46 5.26z" fill="#00273f" opacity=".1"/><path d="m236.54 36.08-1.16 6.86 5.29-5.31z" fill="#00273f" opacity=".1"/><path d="m236.1 35.01-8.34 1.71 2.56-7.36z" fill="#00273f" opacity=".1"/><path d="m239.46 34.68-9.14-5.32 7.12.48z" fill="#00273f" opacity=".1"/><path d="m220.5 38.93 1.96 8.48-10.58-4.46z" fill="#00273f" opacity=".1"/><path d="m227.76 36.72-7.26 2.21-5.3-9.09z" fill="#00273f" opacity=".1"/><path d="m212.51 36.54 3.24 15.27-7.48-3.3z" fill="#00273f" opacity=".3"/><path d="m202.28 42.98 5.99 5.53-4.23 3.77z" fill="#00273f" opacity=".1"/><path d="m255.98 49.12-17.26 6.1 8.45-14.62z" fill="#00273f" opacity=".3"/><path d="m250.09 36.86-2.14 16.15-12.57-10.07z" fill="#00273f" opacity=".3"/><path d="m245.58 33.4 1.59 7.2-10.63-4.52z" fill="#00273f" opacity=".1"/><path d="m222.99 60.26-7.24-8.45 19.63-8.87z" fill="#00273f" opacity=".1"/><path d="m253.28 58.42 2.7-9.3 1.3 15.03z" fill="#00273f" opacity=".3"/><path d="m252.14 66.78-6.83-10.42 7.97 2.06z" fill="#00273f" opacity=".3"/><path d="m238.62 72.24 13.52-5.46-15.87-7.33z" fill="#00273f" opacity=".1"/><path d="m238.72 55.22 6.59 1.14-9.04 3.09z" fill="#00273f" opacity=".1"/><path d="m213.5 30.02 7 8.91-7.99-2.39z" fill="#00273f" opacity=".1"/><path d="m206.28 39.18 1.99 9.33-18.69.55z" fill="#00273f" opacity=".3"/><path d="m201.19 38.2 11.32-1.66-.63 6.41z" fill="#00273f" opacity=".3"/><path d="m204.04 52.28-14.46-3.22-3.76 21.06z" fill="#00273f" opacity=".4"/><path d="m191.75 65.95-1.11-5.11 14.58 6.86z" fill="#00273f" opacity=".1"/><path d="m211.88 42.95-3.61 5.56 12.23-9.58z" fill="#00273f" opacity=".1"/><path d="m236.18 94.67-9.55-4.28 6.6 11.91z" fill="#00273f" opacity=".1"/><path d="m250.81 103.35-14.63-8.68 9.2 8.91z" fill="#00273f" opacity=".1"/><path d="m259.26 95.54-23.08-.87 18.22 6.32z" fill="#00273f" opacity=".4"/><path d="m254.01 108.21 5.25-12.67-13.88 8.04z" fill="#00273f" opacity=".4"/><path d="m258.3 103.77-3.9-2.78-3.59 2.36z" fill="#00273f" opacity=".4"/><path d="m245.38 103.58-.05 7.72-12.15-3.62z" fill="#00273f" opacity=".1"/><path d="m233.23 102.3-.05 5.38-5.12 4.54z" fill="#00273f" opacity=".1"/><path d="m235.32 116.74-3.75 8.58-3.51-13.1z" fill="#00273f" opacity=".1"/><path d="m245.33 111.3 8.17 4.16-10.3 4.55z" fill="#00273f" opacity=".1"/><path d="m231.67 144.21-9.94-10.46 9.84-8.43z" fill="#00273f" opacity=".1"/><path d="m238.68 136.59 6-.15-6.03-9.75z" fill="#00273f" opacity=".1"/><path d="m262.55 113.98 7.28 10.6 28.78 12.46z" fill="#00273f" opacity=".05"/><path d="m305.76 119.6 27.65 7.15-44.87 1z" fill="#00273f" opacity=".05"/><path d="m284.7 111.56 21.06 8.04-17.22 8.15z" fill="#00273f" opacity=".05"/><path d="m343.43 139.51-2.23 13.09-15.46-4.98z" fill="#00273f" opacity=".05"/><path d="m426.54 123.73-4.33 13.33 19.32-13.34z" fill="#00273f" opacity=".1"/><path d="m461.25 115.86.9 8.58-8.51-7.65z" fill="#00273f" opacity=".1"/><path d="m443.45 125.01 10.19-8.22-3.25 19.44z" fill="#00273f" opacity=".1"/><path d="m437.55 140.02-11.76 5.53-3.58-8.49z" fill="#00273f" opacity=".4"/><path d="m434.92 132.2 7.63 11.41 7.84-7.38z" fill="#00273f" opacity=".1"/><path d="m441.53 123.72 34.41 18.72-16.11-1.43z" fill="#00273f" opacity=".1"/><path d="m491.09 131.27-11.31 5.49-11.31-8.42z" fill="#00273f" opacity=".1"/><path d="m489.45 149.38-19.46.49-2.54 6.51z" fill="#00273f" opacity=".1"/><path d="m500.47 127.28-7.16-.81-2.22 4.8z" fill="#00273f" opacity=".1"/><path d="m462.15 124.44 6.32 3.9-8.51 12.61z" fill="#00273f" opacity=".1"/><path d="m212.4 81.52-8.39 8.61 4.07 2.71z" fill="#00273f" opacity=".1"/><path d="m198 75.4-1.73 10 7.74 4.73z" fill="#00273f" opacity=".1"/><path d="m226.63 90.39-7.72-4.99-10.83 7.44z" fill="#00273f" opacity=".1"/><path d="m209 101.95-.92-9.11-9.42 4.73z" fill="#00273f" opacity=".1"/><path d="m196.27 85.4-14.21 3.93 3.74 7.14z" fill="#00273f" opacity=".1"/><path d="m194.35 92.84 4.31 4.73-12.86-1.1z" fill="#00273f" opacity=".1"/><path d="m249.3 76.55-11.67 4.97 14.51-14.74z" fill="#00273f" opacity=".1"/><path d="m185.8 96.47.1 6.44-10.67-3.47z" fill="#00273f" opacity=".1"/><path d="m168.78 94.52 13.28-5.19-6.83 10.11z" fill="#00273f" opacity=".1"/><path d="m159.29 99.79 22.77-10.46-15.44 9.76z" fill="#00273f" opacity=".1"/><path d="m154.62 101.62-8.05 2.07 7.97 2.83z" fill="#00273f" opacity=".1"/><path d="m159.29 99.79-12.72 3.9 15.78.38z" fill="#00273f" opacity=".1"/><path d="m162.35 104.07 12.88-4.63-8.69 8.77z" fill="#00273f" opacity=".1"/><path d="m185.9 102.91 5.42 7.49-24.78-2.19z" fill="#00273f" opacity=".1"/><path d="m130.89 121.59 7.25-7.01-5.71 17.74z" fill="#00273f" opacity=".1"/><path d="m124.94 129.22-5.75 9.27 9.86 14.77z" fill="#00273f" opacity=".1"/><path d="m123.84 124.58 7.05-2.99-5.95 7.63z" fill="#00273f" opacity=".1"/><path d="m137.99 108.69 8.58-5 9.99 13.05z" fill="#00273f" opacity=".1"/><path d="m156.1 128.87-17.96-14.29 8.43-10.89z" fill="#00273f" opacity=".1"/><path d="m132.43 132.32 11.56 3.3-20.68 13.86z" fill="#00273f" opacity=".1"/><path d="m112.36 184.46-4.07-16.46 3.93-9.5z" fill="#00273f" opacity=".1"/><path d="m100.76 205.42 8.24-6.39 3.36-14.57z" fill="#00273f" opacity=".1"/><path d="m151.45 285.35 8.13-24.6 15.65 12.83z" fill="#00273f" opacity=".05"/><path d="m151.45 285.35-24.13-3.94 6.95 25.65z" fill="#00273f" opacity=".1"/><path d="m159.58 260.75-32.26 20.66-30.41-1.34z" fill="#00273f" opacity=".05"/><path d="m112.93 290.17-3.67 12.55 13.01 11.04z" fill="#00273f" opacity=".1"/><path d="m108.04 322.79 13.77 5.27 22.81.39z" fill="#00273f" opacity=".1"/><path d="m127.32 281.41-5.51 46.65-12.55-25.34z" fill="#00273f" opacity=".1"/><path d="m134.27 307.06 10.35 21.39-22.35-14.69z" fill="#00273f" opacity=".1"/><path d="m146.57 374.06-1.95-45.61-16.01 15.91z" fill="#00273f" opacity=".1"/><path d="m80.59 295.05.33 16.28 8.24-25.74z" fill="#00273f" opacity=".1"/><path d="m82.21 326.49-8.83 31.89 7.21-63.33z" fill="#00273f" opacity=".05"/><path d="m101.8 325.15-11.79-21.59-9.03 7.57z" fill="#00273f" opacity=".05"/><path d="m89.66 339.4 12.1-25.48-19.55 12.57z" fill="#00273f" opacity=".05"/><path d="m92.07 294.48-2.06 9.08 11.75 10.36z" fill="#00273f" opacity=".1"/><path d="m71.71 376.29 21.33 6.32 7.38 31.01z" fill="#00273f" opacity=".05"/><path d="m73.38 358.38 24.18 14.46-9.54 26.02z" fill="#00273f" opacity=".05"/><path d="m84.92 421.98 18.25 27.79 6.57-7.58z" fill="#00273f" opacity=".1"/><path d="m104.73 459.46 6.91-2.43-8.47-7.26z" fill="#00273f" opacity=".1"/><path d="m71.55 376.14 13.2 45.7 32.13 13.54z" fill="#00273f" opacity=".05"/><path d="m120.54 358.71-22.98 14.13 6.81 32.22z" fill="#00273f" opacity=".05"/><path d="m90.01 271.8-1.33 14.32 3.39 8.36z" fill="#00273f" opacity=".1"/><path d="m104.06 139.23 11.44-8 3.69 7.26z" fill="#00273f" opacity=".1"/><path d="m90.01 147.87-6.85-3.51-7.65 2.46z" fill="#00273f" opacity=".05"/><path d="m69.34 153.25 7.56 4.74-1.39-11.17z" fill="#00273f" opacity=".05"/><path d="m66.45 145.17 2.89 8.08 9.81-1.16z" fill="#00273f" opacity=".05"/><path d="m89.22 160.52-12.32-2.53 2.25-5.9z" fill="#00273f" opacity=".05"/><path d="m50.55 148.66 18.79 4.59-2.89-8.08z" fill="#00273f" opacity=".05"/><path d="m52.11 140.14-3.68 1.36 20.91 11.75z" fill="#00273f" opacity=".05"/><path d="m41.93 137.14 9.76 8.56-1.14 2.96z" fill="#00273f" opacity=".05"/><path d="m35.94 138.12 12.49 3.38-6.5-4.36z" fill="#00273f" opacity=".05"/><path d="m35.63 129.69 6.3 7.45 9.02-4.17z" fill="#00273f" opacity=".05"/><path d="m40.66 119.48 1.27 10.48 9.02 3.01z" fill="#00273f" opacity=".05"/><path d="m53.5 128.87-2.55 4.1 1.16 7.17z" fill="#00273f" opacity=".05"/><path d="m44.03 128.5 2.23 5.02-4.33 3.62z" fill="#00273f" opacity=".05"/><path d="m41.93 129.96 6.5 11.54-2.17-7.98z" fill="#00273f" opacity=".05"/><path d="m189.92 74.14-4.1-4.02 7.03 1.4z" fill="#00273f" opacity=".4"/><path d="m198 75.4.71-4.56-5.86.68z" fill="#00273f" opacity=".1"/><path d="m189.92 74.14 8.08 1.26.06-13.06z" fill="#00273f" opacity=".1"/><path d="m189.92 74.14 2.94 6.19 5.85-9.49z" fill="#00273f" opacity=".1"/><path d="m191.75 65.95-5.93 4.17 4.82-9.28z" fill="#00273f" opacity=".7"/><path d="m184.04 58.38 1.78 11.74 8.3-15.89z" fill="#00273f" opacity=".6"/><path d="m205.22 67.7-13.47-1.75 6.25 9.45z" fill="#00273f" opacity=".2"/><path d="m146.57 103.69 12.72-3.9-4.67 1.83z" fill="#00273f" opacity=".5"/><path d="m343.43 139.23-8.5-3.48-3.95 2.04z" fill="#00273f" opacity=".7"/><path d="m218.82 42.2-12.54-3.02 5.6 3.77z" fill="#00273f" opacity=".5"/><path d="m74.11 163.74 2.79-5.75-7.56-4.74z" fill="#00273f" opacity=".4"/><path d="m122.27 313.76 12-6.7-12.65 20.48z" fill="#00273f" opacity=".3"/><path d="m104.73 459.46 5.01-17.27-6.57 7.58z" fill="#00273f" opacity=".6"/><path d="m253.07 146.13-8.39-9.69.52 10.65z" fill="#00273f" opacity=".5"/><g fill="none" stroke="#00273f" stroke-linecap="round" stroke-linejoin="round"><path d="m201.19 38.2 5.09.98-4 3.8z" stroke-width=".5"/><path d="m189.58 49.06 12.7-6.08-8.23 11.25z" stroke-width=".5"/><path d="m184.04 58.38 6.6 2.46-4.82 9.28z" stroke-width=".5"/><path d="m189.58 49.06-5.54 9.32 10.01-4.15z" stroke-width=".5"/><path d="m204.04 52.28-9.99 1.95-3.41 6.61z" stroke-width=".5"/><path d="m198.06 62.34-4.01-7.78-2.3 11.39z" stroke-width=".5"/><path d="m205.22 67.7-7.16-5.36-6.31 3.61z" stroke-width=".5"/><path d="m192.85 71.52-1.1-5.57 6.96 4.89z" stroke-width=".5"/><path d="m198 75.4 18.26-2.14-11.04-5.56z" stroke-width=".5"/><path d="m198.71 70.84-.65-8.5 13.44.27z" stroke-width=".5"/><path d="m215.2 29.84-7.46 2.14 4.77 4.56z" stroke-width=".5"/><path d="m206.28 39.18 5.6 3.77.63-6.41z" stroke-width=".5"/><path d="m201.19 38.2 6.55-6.22-1.46 7.2z" stroke-width=".5"/><path d="m194.05 54.56 7.14-16.36-11.61 10.86z" stroke-width=".5"/><path d="m221.36 27.45-6.16 2.39 6.17 3.53z" stroke-width=".5"/><path d="m230.32 29.36-3.08-1.31-2.12 5.72z" stroke-width=".5"/><path d="m237.44 29.84-16.08-2.39 6.4 9.27z" stroke-width=".5"/><path d="m245.58 33.4-3.45-1.03-1.46 5.26z" stroke-width=".5"/><path d="m236.54 36.08-1.16 6.86 5.29-5.31z" stroke-width=".5"/><path d="m236.1 35.01-8.34 1.71 2.56-7.36z" stroke-width=".5"/><path d="m239.46 34.68-9.14-5.32 7.12.48z" stroke-width=".5"/><path d="m220.5 38.93 1.96 8.48-10.58-4.46z" stroke-width=".5"/><path d="m227.76 36.72-7.26 2.21-5.3-9.09z" stroke-width=".5"/><path d="m212.51 36.54 3.24 15.27-7.48-3.3z" stroke-width=".5"/><path d="m202.28 42.98 5.99 5.53-4.23 3.77z" stroke-width=".5"/><path d="m255.98 49.12-17.26 6.1 8.45-14.62z" stroke-width=".5"/><path d="m250.09 36.86-2.14 16.15-12.57-10.07z" stroke-width=".5"/><path d="m245.58 33.4 1.59 7.2-10.63-4.52z" stroke-width=".5"/><path d="m222.99 60.26-7.24-8.45 19.63-8.87z" stroke-width=".5"/><path d="m238.72 55.22-10.96-18.5-5.3 10.69z" stroke-width=".5"/><path d="m211.5 62.61-7.46-10.33 11.71-.47z" stroke-width=".5"/><path d="m222.99 60.26 5.08 9.86-11.81 3.14z" stroke-width=".5"/><path d="m238.62 72.24-.99 9.28-9.56-11.4z" stroke-width=".5"/><path d="m253.28 58.42 2.7-9.3 1.3 15.03z" stroke-width=".5"/><path d="m252.14 66.78-6.83-10.42 7.97 2.06z" stroke-width=".5"/><path d="m238.62 72.24 13.52-5.46-15.87-7.33z" stroke-width=".5"/><path d="m238.72 55.22 6.59 1.14-9.04 3.09z" stroke-width=".5"/><path d="m222.99 60.26 13.28-.81-13.81-12.04z" stroke-width=".5"/><path d="m211.5 62.61 4.76 10.65 2.93-18.62z" stroke-width=".5"/><path d="m213.5 30.02 7 8.91-7.99-2.39z" stroke-width=".5"/><path d="m206.28 39.18 1.99 9.33-18.69.55z" stroke-width=".5"/><path d="m201.19 38.2 11.32-1.66-.63 6.41z" stroke-width=".5"/><path d="m204.04 52.28-14.46-3.22-3.76 21.06z" stroke-width=".5"/><path d="m191.75 65.95-1.11-5.11 14.58 6.86z" stroke-width=".5"/><path d="m208.27 48.51 3.23 14.1-13.44-.27z" stroke-width=".5"/><path d="m211.88 42.95-3.61 5.56 12.23-9.58z" stroke-width=".5"/><path d="m236.18 94.67-9.55-4.28 6.6 11.91z" stroke-width=".5"/><path d="m250.81 103.35-14.63-8.68 9.2 8.91z" stroke-width=".5"/><path d="m259.26 95.54-23.08-.87 18.22 6.32z" stroke-width=".5"/><path d="m254.01 108.21 5.25-12.67-13.88 8.04z" stroke-width=".5"/><path d="m258.3 103.77-3.9-2.78-3.59 2.36z" stroke-width=".5"/><path d="m272.02 104.97-12.76-9.43 5.98 11.84z" stroke-width=".5"/><path d="m266.91 103.33 2.03 8.23-14.93-3.35z" stroke-width=".5"/><path d="m284.7 111.56-19.46-4.18 4.17 8.1z" stroke-width=".5"/><path d="m258.3 103.77 4.25 10.21 2.69-6.6z" stroke-width=".5"/><path d="m266.91 103.33-12.51-2.34-.39 7.22z" stroke-width=".5"/><path d="m245.38 103.58-.05 7.72-12.15-3.62z" stroke-width=".5"/><path d="m233.23 102.3-.05 5.38-5.12 4.54z" stroke-width=".5"/><path d="m235.32 116.74-3.75 8.58-3.51-13.1z" stroke-width=".5"/><path d="m226.63 90.39-10.35 9.4 11.78 12.43z" stroke-width=".5"/><path d="m235.32 116.74 7.88 3.27-4.55 6.68z" stroke-width=".5"/><path d="m245.33 111.3 8.17 4.16-10.3 4.55z" stroke-width=".5"/><path d="m254.01 108.21-.51 7.25 9.05-1.48z" stroke-width=".5"/><path d="m231.67 144.21-9.94-10.46 9.84-8.43z" stroke-width=".5"/><path d="m245.2 147.09 7.5-.9-8.02-9.75z" stroke-width=".5"/><path d="m238.68 136.59 6.52 10.5-13.53-2.88z" stroke-width=".5"/><path d="m238.65 126.69 13.28 6.53-2.19-8.88z" stroke-width=".5"/><path d="m238.68 136.59 6-.15-6.03-9.75z" stroke-width=".5"/><path d="m221.73 133.75 16.92-7.06.03 9.9z" stroke-width=".5"/><path d="m299.14 126.99-29.31-2.41-17.13 21.61z" stroke-width=".5"/><path d="m249.74 124.34 20.09.24 14.87-13.02z" stroke-width=".5"/><path d="m262.55 113.98 7.28 10.6 28.78 12.46z" stroke-width=".5"/><path d="m334.93 135.75-35.79-8.76-.53 10.05z" stroke-width=".5"/><path d="m305.76 119.6 27.65 7.15-44.87 1z" stroke-width=".5"/><path d="m284.7 111.56 21.06 8.04-17.22 8.15z" stroke-width=".5"/><path d="m284.03 152.45-32.1-19.23 36.61-5.47z" stroke-width=".5"/><path d="m325.74 147.62-41.71 4.83 14.58-15.41z" stroke-width=".5"/><path d="m343.43 139.51-2.23 13.09-15.46-4.98z" stroke-width=".5"/><path d="m333.41 126.75-7.67 20.87 63.02-9.34z" stroke-width=".5"/><path d="m365 122.82-30.07 12.93 35.02 13.63z" stroke-width=".5"/><path d="m422.21 137.06-33.45 1.22-2.31 14.71z" stroke-width=".5"/><path d="m404.39 130.7-70.98-3.95 48.55 17.09z" stroke-width=".5"/><path d="m442.63 136.56-38.24-5.86-19.07 22.29z" stroke-width=".5"/><path d="m425.11 126.99-2.9 10.07 19.32-13.34z" stroke-width=".5"/><path d="m462.93 117.98-.78 6.46-10.1-1.97z" stroke-width=".5"/><path d="m443.45 125.01 8.6-2.54-1.66 13.76z" stroke-width=".5"/><path d="m437.55 140.02-11.76 5.53-3.58-8.49z" stroke-width=".5"/><path d="m434.92 132.2 7.63 11.41 7.84-7.38z" stroke-width=".5"/><path d="m441.53 123.72 34.41 18.72-16.11-1.43z" stroke-width=".5"/><path d="m488.35 129.23-8.57 7.53-11.31-8.42z" stroke-width=".5"/><path d="m435.31 154.11 2.24-14.09 22.28.99z" stroke-width=".5"/><path d="m493.31 143.38-23.32 6.49-2.54 6.51z" stroke-width=".5"/><path d="m477.04 149.11 16.27-5.73-33.48-2.37z" stroke-width=".5"/><path d="m500.47 127.28-7.16-.81-4.96 2.76z" stroke-width=".5"/><path d="m467.45 156.38-41.66-10.83 16.76-1.94z" stroke-width=".5"/><path d="m462.15 124.44 6.32 3.9-8.51 12.61z" stroke-width=".5"/><path d="m355.62 162.1-14.42-9.5 44.12.39z" stroke-width=".5"/><path d="m212.4 81.52-8.39 8.61 4.07 2.71z" stroke-width=".5"/><path d="m218.91 85.4 9.16-15.28-15.67 11.4z" stroke-width=".5"/><path d="m198 75.4-1.73 10 7.74 4.73z" stroke-width=".5"/><path d="m212.4 81.52-7.18-13.82-8.95 17.7z" stroke-width=".5"/><path d="m226.63 90.39-7.72-4.99-10.83 7.44z" stroke-width=".5"/><path d="m209 101.95-.92-9.11-9.42 4.73z" stroke-width=".5"/><path d="m196.27 85.4-14.21 3.93 3.74 7.14z" stroke-width=".5"/><path d="m192.81 92.84 5.85 4.73-12.86-1.1z" stroke-width=".5"/><path d="m182.06 89.33 21.95.8-11.85 14.83z" stroke-width=".5"/><path d="m237.63 81.52-1.45 13.15-9.55-4.28z" stroke-width=".5"/><path d="m249.3 76.55-11.67 4.97 14.51-14.74z" stroke-width=".5"/><path d="m257.28 64.15-7.98 12.4-13.03-17.1z" stroke-width=".5"/><path d="m191.32 110.4-21.36 17.26 23.1 10.6z" stroke-width=".5"/><path d="m185.8 96.47.1 6.44-10.67-3.47z" stroke-width=".5"/><path d="m168.78 94.52 13.28-5.19-6.83 10.11z" stroke-width=".5"/><path d="m159.29 99.79 22.77-10.46-15.44 9.76z" stroke-width=".5"/><path d="m154.62 101.62-8.05 2.07 7.97 2.83z" stroke-width=".5"/><path d="m159.29 99.79-12.72 3.9 15.78.38z" stroke-width=".5"/><path d="m169.96 127.66-3.42-19.45-9.49 8.47z" stroke-width=".5"/><path d="m162.35 104.07 12.88-4.63-8.69 8.77z" stroke-width=".5"/><path d="m185.9 102.91 5.42 7.49-24.78-2.19z" stroke-width=".5"/><path d="m201.74 127.1-8.68 11.16 14.85 1.24z" stroke-width=".5"/><path d="m192.16 104.96-.84 5.44 13.26-2.72z" stroke-width=".5"/><path d="m201.74 127.1-10.42-16.7-13.69 33.68z" stroke-width=".5"/><path d="m130.89 121.59 7.25-7.01-5.71 17.74z" stroke-width=".5"/><path d="m124.94 129.22-5.75 9.27 14.24 16.23z" stroke-width=".5"/><path d="m123.84 124.58 7.05-2.99-5.95 7.63z" stroke-width=".5"/><path d="m137.99 108.69 8.58-5 9.99 13.05z" stroke-width=".5"/><path d="m177.63 144.08-33.64-8.46 13.06-18.94z" stroke-width=".5"/><path d="m156.1 128.87-17.96-14.29 8.43-10.89z" stroke-width=".5"/><path d="m132.43 132.32 11.56 3.3-20.68 13.86z" stroke-width=".5"/><path d="m119.19 138.49-6.97 20.01 9.14 10.9z" stroke-width=".5"/><path d="m112.36 184.46-4.07-16.46 3.93-9.5z" stroke-width=".5"/><path d="m121.36 169.4-13.07-1.4.71 31.03z" stroke-width=".5"/><path d="m221.06 155.76-13.15-16.26 23.76 4.71z" stroke-width=".5"/><path d="m183.16 169.95-5.53-25.87-19.29 16.44z" stroke-width=".5"/><path d="m207.32 193.54-2.74-14.96-21.42-8.63z" stroke-width=".5"/><path d="m245.2 147.09-13.37 23.7-10.77-15.03z" stroke-width=".5"/><path d="m221.81 180.93-.75-25.17-16.48 22.82z" stroke-width=".5"/><path d="m193.06 138.26 11.52 40.32-21.42-8.63z" stroke-width=".5"/><path d="m171.1 217.01 12.06-47.06-22.08 21.11z" stroke-width=".5"/><path d="m196 221.71 11.32-28.17-46.24-2.48z" stroke-width=".5"/><path d="m193.34 243.06 2.66-21.35-24.9-4.7z" stroke-width=".5"/><path d="m152.05 242.13-7.25-22.61 26.3-2.51z" stroke-width=".5"/><path d="m161.08 191.06-2.74-30.54-36.98 8.88z" stroke-width=".5"/><path d="m127.93 203.71 33.15-12.65-48.72-6.6z" stroke-width=".5"/><path d="m129.86 247.43-15.12-10.04 13.19-33.68z" stroke-width=".5"/><path d="m104.21 210.16 4.79-11.13 3.36-14.57z" stroke-width=".5"/><path d="m98.55 228.95 16.19 8.44-10.53-27.23z" stroke-width=".5"/><path d="m144.8 219.52-14.94 27.91-25.65-37.27z" stroke-width=".5"/><path d="m110.93 260.45-14.02 19.62-5.52-20.83z" stroke-width=".5"/><path d="m98.55 228.95-5.87 14.11 18.25 17.39z" stroke-width=".5"/><path d="m91.39 259.24 23.35-21.85-3.81 23.06z" stroke-width=".5"/><path d="m192.57 254.69 5.92 26.67-23.26-7.78z" stroke-width=".5"/><path d="m193.34 243.06-.77 11.63-32.99 6.06z" stroke-width=".5"/><path d="m152.05 242.13 7.53 18.62-29.72-13.32z" stroke-width=".5"/><path d="m151.45 285.35 8.13-24.6 15.65 12.83z" stroke-width=".5"/><path d="m110.93 260.45 16.39 20.96 2.54-33.98z" stroke-width=".5"/><path d="m151.45 285.35-24.13-3.94 6.95 25.65z" stroke-width=".5"/><path d="m159.58 260.75-32.26 20.66-30.41-1.34z" stroke-width=".5"/><path d="m112.93 290.17-3.67 12.55 13.01 11.04z" stroke-width=".5"/><path d="m108.04 322.79 13.77 5.27 22.81.39z" stroke-width=".5"/><path d="m127.32 281.41-5.51 46.65-12.55-25.34z" stroke-width=".5"/><path d="m96.91 280.07 12.35 22.65 1.67-42.27z" stroke-width=".5"/><path d="m112.93 290.17-2-29.72 40.52 24.9z" stroke-width=".5"/><path d="m180.06 336.17 18.43-54.81-53.87 47.09z" stroke-width=".5"/><path d="m151.45 285.35 28.61 50.82-57.79-22.41z" stroke-width=".5"/><path d="m134.27 307.06 10.35 21.39-22.35-14.69z" stroke-width=".5"/><path d="m193.04 335.24-2.44 40.76-10.54-39.83z" stroke-width=".5"/><path d="m151.45 285.35 41.59 49.89 5.45-53.88z" stroke-width=".5"/><path d="m186.55 344.36 6.49-9.12 1.2 30.61z" stroke-width=".5"/><path d="m146.57 374.06-1.95-45.61-16.01 15.91z" stroke-width=".5"/><path d="m186.29 383.27-39.72-9.21 22.3 47.47z" stroke-width=".5"/><path d="m180.06 336.17-33.49 37.89 31.77-8.79z" stroke-width=".5"/><path d="m141.56 397.42-12.95-53.06 49.73 20.91z" stroke-width=".5"/><path d="m188.86 448.31-15.61 4.12-4.44-5.59z" stroke-width=".5"/><path d="m166.61 434.52-25.05-35.8 20.89 43.47z" stroke-width=".5"/><path d="m168.87 421.53-6.42 20.66 38.47.93z" stroke-width=".5"/><path d="m168.81 446.84 24.23-20.55-26.43 8.23z" stroke-width=".5"/><path d="m242.08 411.25-34 10.73-7.16 21.14z" stroke-width=".5"/><path d="m236.56 368.82 14.49-3.94 14.5 3.49z" stroke-width=".5"/><path d="m225.09 378.46 11.32-3.55.15-6.09z" stroke-width=".5"/><path d="m228.92 390.4-20.84 31.58-12.9-27.78z" stroke-width=".5"/><path d="m274.64 391.48-32.56 19.77-13.16-20.85z" stroke-width=".5"/><path d="m265.55 368.37 9.49 10.09-46.12 11.94z" stroke-width=".5"/><path d="m288.08 361.08-22.53 7.29 49.36-2.92z" stroke-width=".5"/><path d="m304.52 328.45 6.58-4.64 6.77 8.32z" stroke-width=".5"/><path d="m306.86 341.63-2.34-13.18-.32 22.08z" stroke-width=".5"/><path d="m314.91 365.45 16.54-15.85-13.58-17.47z" stroke-width=".5"/><path d="m288.08 361.08 16.12-10.55 13.49 6.21z" stroke-width=".5"/><path d="m387.49 361.5-7.93-11.86-7.49 6.39z" stroke-width=".5"/><path d="m365.65 342.26 6.42 13.77-28.64-13.77z" stroke-width=".5"/><path d="m332.79 321.2-14.92 10.93-1.2-16.89z" stroke-width=".5"/><path d="m337.9 334.05-.2 4.03-11.42.37z" stroke-width=".5"/><path d="m349.34 329.79-16.55-8.59-14.92 10.93z" stroke-width=".5"/><path d="m365.65 342.26-16.31-12.47 7.91 4.15z" stroke-width=".5"/><path d="m80.59 295.05.33 16.28 8.24-25.74z" stroke-width=".5"/><path d="m82.21 326.49-8.83 31.89 7.21-63.33z" stroke-width=".5"/><path d="m101.8 325.15-11.79-21.59-9.03 7.57z" stroke-width=".5"/><path d="m89.66 339.4 12.1-25.48-19.55 12.57z" stroke-width=".5"/><path d="m92.07 294.48-2.06 9.08 11.75 10.36z" stroke-width=".5"/><path d="m71.71 376.29 21.33 6.32 7.38 31.01z" stroke-width=".5"/><path d="m73.38 358.38 24.18 14.46-9.54 26.02z" stroke-width=".5"/><path d="m89.66 339.4 6.71 21.68-22.99-2.7z" stroke-width=".5"/><path d="m84.92 421.98 18.25 27.79 6.57-7.58z" stroke-width=".5"/><path d="m104.73 459.46 6.91-2.43-8.47-7.26z" stroke-width=".5"/><path d="m71.71 376.29 13.21 45.69 32.13 13.54z" stroke-width=".5"/><path d="m142.13 435.52-7.21 15.74-23.28 5.77z" stroke-width=".5"/><path d="m117.05 435.52 17.87 15.74-25.18-9.07z" stroke-width=".5"/><path d="m118.23 402.22-8.49 39.97-5.37-37.13z" stroke-width=".5"/><path d="m120.54 358.71-22.98 14.13 6.81 32.22z" stroke-width=".5"/><path d="m295.03 444.47 6.33-21.2-11.68-6.86z" stroke-width=".5"/><path d="m273.74 399.13-.03 21.38 14.84 8.55z" stroke-width=".5"/><path d="m264.66 405.02 25.02 11.39-6.07 13.99z" stroke-width=".5"/><path d="m260.84 404.44 12.9-5.31-9.08 5.89z" stroke-width=".5"/><path d="m288.55 429.06 12.81-5.79-5.3 16.67z" stroke-width=".5"/><path d="m273.71 420.51 27.65 2.76-17.75 7.13z" stroke-width=".5"/><path d="m153.44 428.59-28.13 2.96 16.82 3.97z" stroke-width=".5"/><path d="m90.01 271.8-1.33 14.32 3.39 8.36z" stroke-width=".5"/><path d="m104.06 139.23 11.44-8 3.69 7.26z" stroke-width=".5"/><path d="m90.01 147.87-6.85-3.51-7.65 2.46z" stroke-width=".5"/><path d="m69.34 153.25 7.56 4.74-1.39-11.17z" stroke-width=".5"/><path d="m66.45 145.17 2.89 8.08 9.81-1.16z" stroke-width=".5"/><path d="m89.22 160.52-12.32-2.53 2.25-5.9z" stroke-width=".5"/><path d="m76.3 169.95-6.96-16.7 20.67-5.38z" stroke-width=".5"/><path d="m50.22 148.71 19.12 4.54-2.89-8.08z" stroke-width=".5"/><path d="m54.33 139.84-5.9 1.66 20.91 11.75z" stroke-width=".5"/><path d="m41.93 137.14 9.76 8.56-1.47 3.01z" stroke-width=".5"/><path d="m30.29 136.01 18.14 5.49-6.5-4.36z" stroke-width=".5"/><path d="m34.32 128.75 7.61 8.39 9.02-4.17z" stroke-width=".5"/><path d="m42.18 120.01-.25 9.95 9.02 3.01z" stroke-width=".5"/><path d="m53.76 126.56-2.81 6.41 3.38 6.87z" stroke-width=".5"/><path d="m44.03 128.5 2.23 5.02-4.33 3.62z" stroke-width=".5"/><path d="m41.93 129.96 6.5 11.54-2.17-7.98z" stroke-width=".5"/><path d="m89.22 160.52 23-2.02-8.16-19.27z" stroke-width=".5"/><path d="m90.01 147.87 29.18-9.38-29.97 22.03z" stroke-width=".5"/><path d="m189.92 74.14-4.1-4.02 7.03 1.4z" stroke-width=".5"/><path d="m198 75.4.71-4.56-5.86.68z" stroke-width=".5"/><path d="m189.92 74.14 8.08 1.26.06-13.06z" stroke-width=".5"/><path d="m192.86 80.33 19.54 1.19-14.4-6.12z" stroke-width=".5"/><path d="m189.92 74.14 2.94 6.19 5.85-9.49z" stroke-width=".5"/><path d="m226.63 90.39 1.44-20.27-11.81 3.14z" stroke-width=".5"/><path d="m316.67 315.24-12.15 13.21 23.07 9.72z" stroke-width=".5"/><path d="m331.45 349.6 11.98-7.34 36.13 7.38z" stroke-width=".5"/><path d="m274.64 391.48 29.56-40.95 10.71 14.92z" stroke-width=".5"/><path d="m137.99 108.69.15 5.89 16.4-8.06z" stroke-width=".5"/><path d="m76.3 169.95 12.92-9.43-12.32-2.53z" stroke-width=".5"/><path d="m50.22 148.71 26.08 21.24-6.96-16.7z" stroke-width=".5"/><path d="m66.45 145.17 9.06 1.65 7.65-2.46z" stroke-width=".5"/><path d="m104.06 139.23-20.9 5.13 6.85 3.51z" stroke-width=".5"/><path d="m115.5 131.23 9.44-2.01-1.1-4.64z" stroke-width=".5"/><path d="m272.02 104.97 12.68 6.59h-15.76z" stroke-width=".5"/><path d="m89.16 285.59 7.75-5.52-6.9-8.27z" stroke-width=".5"/><path d="m91.39 259.24-1.38 12.56 20.92-11.35z" stroke-width=".5"/><path d="m92.68 243.06-1.29 16.18 19.54 1.21z" stroke-width=".5"/><path d="m101.76 313.92 7.5-11.2 13.01 11.04z" stroke-width=".5"/><path d="m101.8 325.15 6.24-2.36-6.28-8.87z" stroke-width=".5"/><path d="m71.71 376.29 1.67-17.91 24.18 14.46z" stroke-width=".5"/><path d="m96.37 361.08 1.19 11.76 22.98-13.82z" stroke-width=".5"/><path d="m120.54 358.71 8.07-14.35-21.78-3.62z" stroke-width=".5"/><path d="m101.8 325.15 5.03 15.59-17.17-1.34z" stroke-width=".5"/><path d="m121.81 328.06-14.98 12.68 21.78 3.62z" stroke-width=".5"/><path d="m178.34 365.27 15.9.58-3.64 10.15z" stroke-width=".5"/><path d="m186.55 344.36-8.21 20.91 1.72-29.1z" stroke-width=".5"/><path d="m190.6 376-4.31 7.27 8.89 10.93z" stroke-width=".5"/><path d="m188.86 448.31 12.06-5.19-7.88-16.83z" stroke-width=".5"/><path d="m162.45 442.19 6.36 4.65-2.2-12.32z" stroke-width=".5"/><path d="m193.04 426.29 2.14-32.09 12.9 27.78z" stroke-width=".5"/><path d="m225.09 378.46 3.83 11.94-33.74 3.8z" stroke-width=".5"/><path d="m236.41 374.91-7.49 15.49 46.12 1.08z" stroke-width=".5"/><path d="m275.04 378.46-.39 13.01 40.26-26.02z" stroke-width=".5"/><path d="m221.81 180.93-14.49 12.61-2.74-14.96z" stroke-width=".5"/><path d="m231.83 170.79-10.02 10.14-.75-25.17z" stroke-width=".5"/><path d="m192.86 80.52 3.41 4.88-3.46 7.44z" stroke-width=".5"/><path d="m266.91 103.33-1.67 4.05 6.78-2.41z" stroke-width=".5"/><path d="m259.26 95.54-.96 8.23 8.61-.44z" stroke-width=".5"/><path d="m249.74 124.34-6.54-4.33 10.3-4.55z" stroke-width=".5"/><path d="m365 122.82 39.39 7.88-15.63 7.58z" stroke-width=".5"/><path d="m425.11 126.99-20.72 3.71 17.82 6.36z" stroke-width=".5"/><path d="m435.31 154.11-9.52-8.56 16.76-1.94z" stroke-width=".5"/><path d="m450.39 136.23-7.84 7.38 17.41-2.66z" stroke-width=".5"/><path d="m442.63 136.56-1.1-12.84-6.22 8.58z" stroke-width=".5"/><path d="m425.79 145.55 9.13-13.35-12.71 4.86z" stroke-width=".5"/><path d="m425.79 145.55-37.03-7.27 33.45-1.22z" stroke-width=".5"/><path d="m66.45 145.17-14.76.53 2.64-5.86z" stroke-width=".5"/><path d="m228.06 112.22-23.48-4.54-2.84 19.42z" stroke-width=".5"/><path d="m221.73 133.75-19.99-6.65 29.83-1.78z" stroke-width=".5"/><path d="m209 101.95-4.42 5.73 11.7-7.89z" stroke-width=".5"/><path d="m252.7 146.19-.77-12.97-7.25 3.22z" stroke-width=".5"/><path d="m133.43 154.72-12.07 14.68 1.95-19.92z" stroke-width=".5"/><path d="m112.22 158.5 11.09-9.02-4.12-10.99z" stroke-width=".5"/><path d="m61.76 395.78-20.71 10.13v-14.43z" stroke-width=".5"/><path d="m54.91 379.27-13.86 26.64v-14.43z" stroke-width=".5"/><path d="m44.53 365.27 1.28 11.07 9.1 2.93z" stroke-width=".5"/><path d="m8.79 383.19 1.79-9.13-9.79.61z" stroke-width=".5"/><path d="m70.53 400.31-8.77-4.53 7.25-6.24z" stroke-width=".5"/><path d="m69.01 389.54 24.03-6.93-21.33-6.32z" stroke-width=".5"/><path d="m423.49 302.09 8.03 19.35 2.27-19.48z" stroke-width=".5"/><path d="m442.09 328.93 20.89-4.48 2.38 29.15z" stroke-width=".5"/><path d="m536.12 65.68 13.02-5.42 4.89 12.83z" stroke-width=".5"/><path d="m446.62 261.61-10.49 29.47-7.3-28.42z" stroke-width=".5"/><path d="m469.12 249.4 13.01-5.8-8.89-14.32z" stroke-width=".5"/><path d="m445.57 246.43 23.55 2.97 13.01-5.8z" stroke-width=".5"/><path d="m273.22 291.08 18.44 7.78 2.19-23.75z" stroke-width=".5"/><path d="m520.53 74.32-3.1 13.67 8.51-2.05z" stroke-width=".5"/><path d="m536.12 65.68-18.69 22.31 3.1-13.67z" stroke-width=".5"/><path d="m598.92 82.4 1.36 2.66-4.5 3.94z" stroke-width=".5"/><g clip-path="url(#a)"><path d="m193.04 335.31 395.66 260.3" stroke-width=".5"/><path d="m161.43 595.61 155.24-280.37" stroke-width=".5"/><path d="m252.7 146.19 63.82 169.22"/><path d="m327.59 338.41 196.28 245.19"/><path d="m379.56 349.64 468.27 246.93" stroke-width=".5"/><path d="m104.73 459.46 100.05 188.27" stroke-width=".5"/><path d="m316.67 505.11-118.19-223.75"/><path d="m433.79 301.96-235.31-20.6"/><path d="m110.93 260.45 193.59 68" stroke-width=".5"/><path d="m76.3 169.95 228.22 158.5"/><path d="m513.57 334.19 158.47 271.77" stroke-width=".5"/><path d="m435.31 154.42 58.43 232.83" stroke-width=".75"/><path d="m513.57 334.19-134.01 15.45" stroke-width=".5"/><path d="m433.79 301.96-117.12 203.15" stroke-width=".5"/><path d="m493.74 387.25 19.83-53.06" stroke-width=".5"/><path d="m433.63 301.95 79.94 32.24" stroke-width=".5"/><path d="m493.74 387.29-60.11-85.34" stroke-width=".5"/><path d="m493.74 387.29 326.38 79.63" stroke-width=".5"/><path d="m493.74 387.29-177.07 117.82" stroke-width=".5"/><path d="m146.57 374.06-41.19 215.67" stroke-width=".5"/><path d="m104.73 459.46 211.94 45.65"/><path d="m105.38 589.73 211.29-84.62" stroke-width=".5"/><path d="m523.87 583.6-207.2-78.49" stroke-width=".5"/><path d="m493.31 387.25-294.6-105.47"/><path d="m193.04 335.31 111.48-6.86" stroke-width="1.5"/><g stroke-width=".5"><path d="m265.55 368.82 168.24-66.87"/><path d="m609.88 520.64 210.24-53.72"/><path d="m609.88 520.64-86.01 62.96"/><path d="m493.74 387.58 116.14 133.06"/><path d="m609.88 520.64 63.2 87.17"/><path d="m609.88 520.64-21.18 74.97"/><path d="m609.88 520.64 237.95 75.93"/><path d="m609.88 520.64-293.21-15.53"/><path d="m54.91 595.61 41.55-57.21"/><path d="m96.46 538.4 65.05 57.65"/><path d="m104.73 459.46-8.27 78.94"/><path d="m36.71 512.3 124.8 83.75"/><path d="m96.46 538.4-59.75-26.1"/><path d="m36.71 512.3 68.02-52.84"/></g><path d="m71.71 376.34 24.75 162.06"/><path d="m36.71 512.3 69.41 77.14" stroke-width=".5"/><path d="m36.71 512.3 18.2 83.31" stroke-width=".5"/><path d="m144.62 328.45 172.05 176.66" stroke-width=".5"/><path d="m204.78 647.73 111.89-142.62" stroke-width=".5"/><path d="m349.34 613.27-34.05-247.42"/><path d="m89.66 339.4 259.68 273.87"/><path d="m493.71 387.25 318.99-148.86" stroke-width=".5"/><path d="m813.87 172.19-497.2 332.92"/><path d="m642.01 339.4-128.44-5.21"/><path d="m609.88 520.64 32.13-181.24" stroke-width=".5"/><path d="m642.01 339.4 171.86-167.21" stroke-width=".5"/><path d="m609.88 520.64 203.96-348.42" stroke-width=".5"/><path d="m566.88 304.34 75.13 36.37" stroke-width=".5"/><path d="m566.88 304.34 253.24 162.58"/><path d="m566.88 304.34-53.44 30.18" stroke-width=".5"/><path d="m566.88 304.34 245.82-65.95" stroke-width=".5"/><path d="m523.87 583.6-30.16-196.35" stroke-width=".5"/><path d="m133.09 154.42 300.54 147.53" stroke-width=".5"/><path d="m236.56 368.82 257.15 18.43"/><path d="m369.51 149.21-171 132.2" stroke-width=".5"/><path d="m316.52 315.41 72.25-177.12" stroke-width=".5"/><path d="m118.29 402.22 262.69-52.58" stroke-width=".5"/><path d="m89.16 160.46 57.41 213.6" stroke-width=".5"/><path d="m84.92 421.98-48.21 90.32"/><path d="m166.61 434.52 38.17 213.21" stroke-width=".5"/><path d="m96.46 538.4 89.83-155.13" stroke-width=".5"/></g></g></svg>